<?xml version="1.0" standalone="no"?>
<!DOCTYPE svg PUBLIC "-//W3C//DTD SVG 1.1//EN" "http://www.w3.org/Graphics/SVG/1.1/DTD/svg11.dtd">
<svg xmlns="http://www.w3.org/2000/svg">
<defs >
<font id="IbarraRealNova" horiz-adv-x="578" ><font-face
    font-family="Ibarra Real Nova Medium"
    units-per-em="1000"
    panose-1="0 0 0 0 0 0 0 0 0 0"
    ascent="950"
    descent="-300"
    alphabetic="0" />
<glyph unicode=" " horiz-adv-x="214" />
<glyph unicode="!" horiz-adv-x="232" d="M99 210L243 658H351L133 210H99ZM51 -8Q26 -8 7 10T-12 54Q-12 81 7 99T51 118Q77 118 95 100T114 54Q114 29 96 11T51 -8Z" />
<glyph unicode="&quot;" horiz-adv-x="440" d="M372 439L443 710H565L413 439H372ZM204 439L275 710H397L245 439H204Z" />
<glyph unicode="#" horiz-adv-x="510" d="M-3 -26L108 176H25L53 226H137L234 406H152L179 456H263L382 674H438L318 456H433L550 674H607L488 456H573L546 406H459L359 226H447L419 176H330L219 -26H165L277 176H163L50 -26H-3ZM191 225H304L404 406H289L191 225Z" />
<glyph unicode="$" horiz-adv-x="596" d="M160 -89L484 766H518L193 -89H160ZM242 -9Q160 -9 107 13T13 70Q36 113 52 158T74 255L105 252Q100 230 97 209T94 166Q94 119 112 86T166 35T252 17Q302 17 344 35T412 89T438 177Q438 211 423 233T379 272T315 307Q280
325 248 346T195 400T175 479Q175 527 197 565T257 629T342 670T437 685Q473 685 509 677T578 651Q592 644 606 636T634 628Q646 628 659 631L663 627Q635 588 626 548T612 459L587 460Q594 520 575 564T517 632T423 657Q380 657 343 639T282 588T259 506Q259 476
277 456T323 420T383 389Q415 372 450 351T509 298T534 218Q534 161 510 119T444 48T350 5T242 -9Z" />
<glyph unicode="%" horiz-adv-x="652" d="M228 345Q181 345 157 371T133 433Q133 455 138 477T150 519Q181 600 226 641T330 683Q377 683 399 657T421 597Q421 575 416 552T403 510Q385 461 361 424T303 366T228 345ZM425 -8Q378 -8 354 18T330 80Q330 102 335
124T348 166Q378 247 423 288T528 330Q574 330 596 304T618 244Q618 222 613 199T600 157Q582 108 558 71T500 13T425 -8ZM425 15Q450 15 470 35T507 88T537 160Q547 189 554 216T562 264Q562 284 554 295T525 306Q500 306 479 287T441 235T410 163Q400 134 393
106T385 57Q385 37 395 26T425 15ZM228 368Q253 368 273 388T310 441T340 513Q350 542 357 569T364 617Q364 637 356 648T328 659Q303 659 282 640T244 588T213 516Q203 487 195 459T187 410Q187 390 197 379T228 368ZM-9 0L697 680H758L54 0H-9Z" />
<glyph unicode="&amp;" horiz-adv-x="847" d="M264 -8Q202 -8 156 11T83 71T57 175Q57 219 71 268T110 367T167 461Q196 501 230 532T302 582T377 601Q402 601 420 588T439 542Q439 509 421 476T373 413T312 361T252 327Q252 327 243 326T226 323T217 321Q260
339 293 372T346 442T366 504Q366 520 357 530T329 541Q298 541 271 520T222 464T185 385T161 298T153 214Q153 155 174 116T230 57T310 38Q374 38 429 63T525 130T590 225T618 334Q619 361 608 378T570 396Q541 396 517 383T480 348T465 303Q465 291 473 284T501
276Q546 276 593 284T682 301Q724 310 761 316T830 323L838 320Q838 320 834 301T824 254T811 198T800 151T796 132L774 130L782 188Q783 194 783 199T785 209Q787 228 783 236T762 245Q735 245 700 239T624 223Q579 212 537 205T464 197Q430 197 417 211T406 250Q408
292 428 326T479 385T544 423T607 436Q653 436 674 414T692 353Q688 296 662 243T594 144T498 65T384 11T264 -8ZM148 262L153 301Q223 319 284 353T394 428T476 508T522 574Q525 582 527 589T530 601Q532 615 528 626T518 646Q513 655 509 663T505 682Q505 707
522 725T563 743Q585 743 598 728T612 688Q612 675 610 660T599 628Q586 595 548 547T452 446T317 344T148 262Z" />
<glyph unicode="&apos;" horiz-adv-x="271" d="M204 439L275 710H397L245 439H204Z" />
<glyph unicode="(" horiz-adv-x="332" d="M85 -234Q59 -187 43 -142T21 -51T15 45Q15 150 50 249T147 438T288 608T454 753L475 734Q391 661 319 577T194 399T110 201T79 -14Q79 -64 87 -115T110 -220L85 -234Z" />
<glyph unicode=")" horiz-adv-x="331" d="M280 748Q307 702 322 657T344 565T350 469Q350 364 315 265T218 76T77 -94T-89 -239L-110 -220Q-26 -147 46 -63T171 115T255 313T286 528Q286 578 278 630T255 734L280 748Z" />
<glyph unicode="*" horiz-adv-x="446" d="M464 362Q457 356 440 353T411 365Q402 377 396 392T384 424Q377 445 368 465T343 505L334 517Q318 537 301 551T266 576Q251 586 238 595T215 616Q202 632 210 648T225 670Q232 676 249 679T278 667Q287 654 293 639T305
607Q313 588 321 568T346 526L355 515Q372 494 389 481T423 455Q439 446 452 437T474 416Q487 400 480 384T464 362ZM272 335Q263 339 252 352T247 383Q253 397 263 409T286 436Q299 452 312 470T335 512L340 525Q350 550 353 572T357 614Q359 633 360 649T367
679Q375 697 392 698T417 696Q426 692 438 680T442 648Q436 635 426 622T404 596Q390 579 378 561T355 520L349 506Q339 482 337 460T332 417Q331 399 330 383T322 353Q315 334 298 333T272 335ZM193 454Q173 450 163 464T151 489Q150 499 155 515T181 534Q196
536 212 534T245 527Q266 523 288 521T337 522L351 525Q377 529 397 537T437 554Q453 562 467 569T496 578Q516 581 526 567T538 542Q540 533 534 517T508 497Q494 496 478 498T444 505Q423 508 401 510T353 509L338 508Q312 504 292 496T253 478Q236 470 222 463T193
454Z" />
<glyph unicode="+" horiz-adv-x="541" d="M298 142V313H123V356H298V526H341V356H517V313H341V142H298Z" />
<glyph unicode="," horiz-adv-x="271" d="M-108 -152L-98 -130Q-65 -124 -29 -106T31 -58T56 5Q56 26 41 42T-4 63L8 94Q27 101 39 109T63 128T88 153Q113 141 128 119T144 68Q144 26 123 -11T66 -79T-15 -129T-108 -152Z" />
<glyph unicode="-" horiz-adv-x="279" d="M50 319H285V251H50V319Z" />
<glyph unicode="." horiz-adv-x="271" d="M72 -7Q44 -7 24 13T3 61Q3 91 23 111T72 132Q101 132 121 112T142 61Q142 34 122 14T72 -7Z" />
<glyph unicode="/" horiz-adv-x="452" d="M-68 -7L581 711H631L-18 -7H-68Z" />
<glyph unicode="0" horiz-adv-x="596" d="M244 -8Q185 -8 149 17T97 84T80 177Q80 222 89 268T112 353Q151 462 200 535T312 646T452 683Q514 683 550 658T602 591T618 500Q618 457 609 414T587 334Q551 232 504 155T394 35T244 -8ZM243 18Q285 18 319 44T381
115T434 217T479 339Q502 405 516 462T530 562Q530 603 513 629T450 655Q395 655 354 614T280 503T220 347Q196 279 180 218T164 110Q164 70 182 44T243 18Z" />
<glyph unicode="1" horiz-adv-x="406" d="M-49 0L-42 19L7 28Q36 33 52 37T78 49T94 68T110 100L314 605Q319 618 316 624T296 629L214 626L222 646L446 684L210 100Q200 73 198 60T209 41T255 28L297 19L290 0H-49Z" />
<glyph unicode="2" horiz-adv-x="528" d="M-42 0L-36 14L221 217Q264 250 301 284T368 352T421 421T454 491T466 560Q466 602 446 624T374 647Q346 647 320 639T278 619T261 590Q261 578 265 570T273 553T277 533Q277 512 259 500T219 487Q202 487 188 497T173
533Q173 569 193 596T247 643T323 672T407 682Q460 682 497 667T554 625T574 559Q574 523 559 489T516 421T455 356T381 294T303 233L117 91H334Q352 91 364 96T388 113T417 148L439 177H458L356 0H-42Z" />
<glyph unicode="3" horiz-adv-x="529" d="M149 -9Q74 -9 32 21T-10 107Q-10 130 3 151T42 172Q70 172 80 158T90 131Q90 113 82 103T66 84T57 66Q57 47 77 36T129 24Q196 24 249 53T332 134T363 250Q363 289 339 320T261 354L200 336L193 354L238 373Q270 386
306 405T375 451T427 510T447 585Q447 616 430 634T370 652Q331 652 305 637T278 603Q278 589 286 578T294 548Q294 528 277 516T237 504Q220 504 205 515T190 549Q190 581 208 605T257 646T324 672T398 681Q469 681 509 650T549 574Q549 540 532 513T487 464T426
427T359 399V398Q414 392 446 354T478 265Q478 199 449 148T372 62T265 9T149 -9Z" />
<glyph unicode="4" horiz-adv-x="555" d="M104 0L112 19L167 29Q196 34 211 40T235 57T252 89L440 553L456 546L83 224L85 248H451Q471 248 483 254T509 280L540 322H560L470 173H5L16 200L577 684H591L351 89Q338 58 345 48T388 29L435 19L428 0H104Z" />
<glyph unicode="5" horiz-adv-x="503" d="M120 -10Q53 -10 13 20T-27 107Q-27 130 -14 151T25 172Q53 172 63 158T73 131Q73 113 65 102T49 83T40 66Q40 47 61 36T114 25Q164 25 205 42T278 91T327 160T344 240Q344 292 312 320T207 349Q193 349 180 348T152 345L147
350L312 668H541Q558 668 571 676T597 701L606 713H625L548 581H302L219 419Q231 421 243 422T268 424Q336 424 379 403T442 348T462 271Q462 222 438 172T369 81T261 15T120 -10Z" />
<glyph unicode="6" horiz-adv-x="518" d="M183 -9Q104 -9 69 30T34 129Q34 161 43 196T67 267Q105 360 162 436T290 567T441 653T601 683L597 670Q515 654 450 617T332 524T240 401T167 255Q146 202 137 164T127 97Q127 59 144 39T189 18Q231 18 268 45T334 115T379
206T396 297Q396 338 377 357T331 376Q298 376 263 355T199 301T156 229L165 298Q174 332 206 358T281 399T366 414Q433 414 463 378T494 288Q494 234 471 182T406 86T307 17T183 -9Z" />
<glyph unicode="7" horiz-adv-x="484" d="M21 0L542 583H244Q233 583 221 577T196 555L162 514H144L236 674H635L606 603L136 0H21Z" />
<glyph unicode="8" horiz-adv-x="567" d="M206 -12Q158 -12 118 3T52 50T27 128Q27 173 50 210T113 278T198 328T288 359L311 335Q262 316 222 286T157 214T133 123Q133 74 159 50T226 25Q264 25 301 44T364 101T389 192Q389 235 364 266T304 324Q281 344 258
366T219 416T203 475Q203 521 225 559T285 624T371 665T472 680Q512 680 545 667T598 629T618 570Q618 528 598 495T545 438T473 396T396 367L368 391Q404 409 439 435T497 497T521 575Q521 610 501 628T446 646Q412 646 379 629T325 580T303 511Q303 482 315 460T347
421T390 383Q415 362 440 339T482 284T499 211Q499 157 475 116T409 47T315 3T206 -12Z" />
<glyph unicode="9" horiz-adv-x="517" d="M433 683Q512 683 547 644T582 545Q582 514 573 479T549 407Q511 315 454 239T326 107T175 21T14 -9L19 4Q101 20 166 57T284 150T376 273T448 419Q470 473 479 511T488 577Q488 615 471 635T427 656Q385 656 348 629T281
559T236 468T220 377Q220 337 239 318T284 298Q318 298 353 319T417 374T460 445L450 376Q442 342 410 316T335 275T249 260Q182 260 152 296T121 386Q121 440 144 492T210 588T309 657T433 683Z" />
<glyph unicode=":" horiz-adv-x="271" d="M199 307Q171 307 151 327T130 375Q130 405 150 425T199 446Q228 446 248 426T269 375Q269 348 249 328T199 307ZM72 248Q44 248 24 268T3 316Q3 346 23 366T72 387Q101 387 121 367T142 316Q142 289 122 269T72 248Z" />
<glyph unicode=";" horiz-adv-x="271" d="M-108 -152L-98 -130Q-65 -124 -29 -106T31 -58T56 5Q56 26 41 42T-4 63L8 94Q27 101 39 109T63 128T88 153Q113 141 128 119T144 68Q144 26 123 -11T66 -79T-15 -129T-108 -152ZM191 307Q163 307 143 327T122 375Q122
405 142 425T191 446Q220 446 240 426T261 375Q261 348 241 328T191 307Z" />
<glyph unicode="&lt;" horiz-adv-x="541" d="M87 318L88 350L477 532V483L148 334L477 184V134L87 318Z" />
<glyph unicode="=" horiz-adv-x="541" d="M123 427V470H516V427H123ZM123 454V497H516V454H123Z" />
<glyph unicode="&gt;" horiz-adv-x="541" d="M550 318L161 134V184L490 334L161 483V532L549 350L550 318Z" />
<glyph unicode="?" horiz-adv-x="371" d="M81 197Q108 261 132 296T189 348T274 373Q312 380 332 387T363 408T382 442Q389 462 389 475Q389 502 352 509L194 537L249 673H267L261 646Q258 629 264 620T283 608L373 592Q407 585 424 570T441 525Q441 494 420 443Q392
373 350 331T231 278Q193 273 171 263T135 237T113 197H81ZM44 -7Q19 -7 1 11T-18 54Q-18 81 0 99T44 118Q70 118 88 100T107 54Q107 30 89 12T44 -7Z" />
<glyph unicode="@" horiz-adv-x="980" d="M343 -182Q251 -182 178 -152T62 -63T19 84Q19 179 55 263T152 418T287 547Q353 598 425 634T572 689T715 708Q799 708 867 681T976 598T1017 454Q1017 399 995 341T935 227T846 127T739 56T623 30Q572 30 553 59T551
139L559 161L623 170Q599 110 607 91T660 71Q692 71 729 93T803 153T868 240T915 343T933 452Q933 530 904 578T822 648T697 671Q619 671 535 644T373 566T233 443T133 280T96 82Q96 6 131 -43T228 -115T365 -139Q448 -139 542 -113T728 -39L737 -64Q639 -123 537
-152T343 -182ZM417 92Q442 92 469 111T524 162T572 229T607 301T620 364Q620 386 610 397T578 409Q553 409 522 392T461 342Q423 303 399 252T375 148Q375 92 417 92ZM358 31Q333 31 314 46T294 105Q294 145 316 193T376 288T456 374T542 437T618 461Q640 461
653 453T672 431H675L734 469H745L606 125L557 156H551Q536 133 513 111T464 71T410 42T358 31Z" />
<glyph unicode="A" horiz-adv-x="759" d="M-82 0L-73 19L-18 29Q16 34 38 46T80 81L534 584L537 635Q560 636 580 647T615 673T635 698H645L592 94Q589 59 599 47T636 28L674 19L665 0H353L362 19L419 29Q462 36 477 49T495 98L534 555H547L115 80Q97 59 97 48T121
32L185 19L176 0H-82ZM239 228L260 260H550L534 228H239Z" />
<glyph unicode="B" horiz-adv-x="710" d="M-48 0L-41 19L21 30Q49 35 64 40T89 57T106 89L306 584Q319 617 313 626T269 643L215 654L222 673H530Q638 673 687 646T736 565Q736 511 703 471T617 407T502 373L501 371Q572 363 609 330T646 242Q646 173 605 118T483
32T279 0H-48ZM254 27H279Q337 27 383 44T462 93T512 164T529 248Q529 296 502 326T412 356H318L210 89Q195 54 205 41T254 27ZM328 384H424Q480 384 526 408T600 475T628 567Q628 607 600 626T505 646H435L328 384Z" />
<glyph unicode="C" horiz-adv-x="770" d="M395 -8Q303 -8 237 28T134 124T97 257Q97 342 134 419T236 555T385 648T566 682Q620 682 662 674T729 656Q749 649 766 644T804 638Q815 638 823 640T842 643L844 641Q827 601 822 557T819 464H798Q783 519 755 562T677
629T554 654Q491 654 438 630T342 562T269 466T223 356T206 244Q206 136 261 78T407 20Q435 20 472 28T550 58T629 117T702 212H725Q703 164 686 117T659 28Q658 28 655 28T644 28Q627 28 604 24T552 13Q515 6 474 -1T395 -8Z" />
<glyph unicode="D" horiz-adv-x="801" d="M-50 0L-42 19L21 30Q49 35 64 40T89 57T106 89L305 584Q318 616 311 626T268 643L215 654L222 673H519Q609 673 675 642T777 553T814 414Q814 331 778 257T676 124T522 33T331 0H-50ZM300 27Q394 27 469 56T598 141T679
274T708 447Q708 513 685 557T619 624T517 647H435L209 86Q196 53 217 40T300 27Z" />
<glyph unicode="E" horiz-adv-x="681" d="M-50 0L-42 19L21 30Q49 35 64 40T89 57T106 89L305 584Q318 616 311 626T268 643L215 654L222 673H792Q783 659 777 645T764 617Q750 582 744 551T730 496H710Q712 539 705 573T672 626T598 646H436L324 370H474Q509
370 531 378T569 403T602 447L630 494H649L536 216H517L527 264Q536 304 525 322T463 340H312L214 98Q204 73 203 57T214 34T261 27H348Q387 27 426 41T499 79T557 126L610 180H630Q600 135 575 88T531 0H-50Z" />
<glyph unicode="F" horiz-adv-x="645" d="M-50 0L-42 19L21 30Q49 35 64 40T89 57T106 89L305 584Q318 616 311 626T268 643L215 654L222 673H792Q783 659 776 645T764 617Q750 582 744 551T730 496H710Q712 520 709 546T695 595T662 632T607 646H436L316 350H448Q480
350 505 355T552 376T594 427L621 474H640L528 198L509 197L518 242Q526 278 518 294T488 315T436 320H304L210 89Q197 58 204 48T247 30L306 19L299 0H-50Z" />
<glyph unicode="G" horiz-adv-x="845" d="M386 -7Q325 -7 273 11T181 63T120 146T98 257Q98 345 135 422T236 557T384 649T558 682Q612 682 655 675T733 655Q753 648 770 644T811 640Q824 640 834 641T849 644L852 641Q838 616 830 582T822 514Q822 503 823 492T825
471L801 472Q783 535 747 575T663 635T557 654Q486 654 423 621T311 531T235 399T207 244Q207 168 231 119T298 46T400 22Q437 22 477 34T555 72L611 214Q624 247 617 256T573 273L520 284L528 304H864L857 284L803 275Q775 270 760 265T737 248T719 216L642 25L637
23Q628 25 619 26T596 27Q580 27 556 22T504 10Q478 3 448 -2T386 -7Z" />
<glyph unicode="H" horiz-adv-x="847" d="M381 0L388 19L451 30Q480 35 495 40T519 57T536 89L736 584Q749 616 742 626T698 643L645 654L653 673H995L988 654L925 643Q897 638 882 633T858 616T840 584L640 89Q627 58 634 48T678 30L731 19L723 0H381ZM-50 0L-42
19L21 30Q49 35 64 40T89 57T106 89L305 584Q318 616 311 626T268 643L215 654L222 673H565L558 654L495 643Q467 638 451 633T427 616T410 584L210 89Q197 58 204 48T247 30L301 19L293 0H-50ZM289 341L298 370H682L673 341H289Z" />
<glyph unicode="I" horiz-adv-x="417" d="M-50 0L-42 19L21 30Q49 35 64 40T89 57T106 89L305 584Q318 616 311 626T268 643L215 654L222 673H565L558 654L495 643Q467 638 451 633T427 616T410 584L210 89Q197 58 204 48T247 30L301 19L293 0H-50Z" />
<glyph unicode="J" horiz-adv-x="430" d="M-43 -186Q-73 -186 -97 -173T-136 -138T-150 -87Q-150 -49 -128 -33T-81 -17Q-60 -17 -45 -29T-29 -67Q-29 -83 -36 -93T-52 -112Q-59 -119 -64 -125T-70 -138Q-70 -145 -63 -150T-37 -155Q-10 -155 23 -129T77 -49L332
584Q345 616 338 626T295 643L242 654L249 673H592L584 654L522 643Q494 638 478 633T454 616T436 584L182 -42H180Q166 -42 153 -57T123 -96Q106 -118 83 -139T29 -173T-43 -186Z" />
<glyph unicode="K" horiz-adv-x="803" d="M652 0Q606 0 579 14T531 55L324 322L328 330L699 591Q713 600 724 609T736 626Q736 637 702 644L655 654L663 673H929L921 654L876 645Q850 640 828 632T779 610T717 569L418 357L650 58Q663 40 675 32T710 19L703 0H652ZM-50
0L-42 19L21 30Q49 35 64 40T89 57T106 89L305 584Q319 617 312 626T268 643L215 654L222 673H565L558 654L495 643Q467 638 451 633T427 616T410 584L210 89Q197 56 204 47T247 30L301 19L293 0H-50Z" />
<glyph unicode="L" horiz-adv-x="703" d="M-50 0L-42 19L21 30Q49 35 64 40T89 57T106 89L305 584Q318 616 311 626T268 643L215 654L222 673H565L558 654L495 643Q467 638 451 633T427 616T410 584L210 91Q197 56 206 42T261 27H398Q438 27 477 41T550 79T607
126L663 185H683Q653 139 626 90T581 0H-50Z" />
<glyph unicode="M" horiz-adv-x="962" d="M356 -8L349 584L134 90Q121 61 129 50T171 32L232 19L224 0H-53L-45 19L19 31Q46 37 61 42T85 59T103 90L314 580Q328 612 322 624T280 645L239 654L247 673H451L456 155L880 673H1098L1090 654L1028 644Q1001 639 985
633T960 614T941 579L758 89Q746 58 752 48T795 30L849 19L841 0H511L519 19L588 32Q605 35 615 39T632 51T643 73L828 562L366 -8H356Z" />
<glyph unicode="N" horiz-adv-x="849" d="M604 -16L334 567L142 94Q130 65 136 52T177 31L237 19L229 0H-49L-41 19L24 31Q51 35 66 41T92 60T110 92L307 579Q316 601 316 613T305 632T262 645L217 655L224 673H396L645 138L822 579Q834 609 827 622T786 642L727
654L734 673H1012L1005 654L939 642Q913 638 897 632T872 613T854 581L613 -16H604Z" />
<glyph unicode="O" horiz-adv-x="823" d="M397 -8Q312 -8 245 25T139 120T100 265Q100 352 137 427T237 560T378 650T537 682Q623 682 689 649T795 554T834 409Q834 322 797 247T696 114T556 25T397 -8ZM398 20Q448 20 496 40T586 99T659 191T708 308T726 445Q726
510 702 557T636 629T538 655Q488 655 440 634T350 575T277 483T227 366T209 228Q209 164 233 117T300 45T398 20Z" />
<glyph unicode="P" horiz-adv-x="671" d="M-48 0L-40 19L22 30Q50 35 65 40T90 57T107 89L303 575Q314 602 314 615T302 633T258 645L215 654L222 673H533Q636 673 694 637T752 535Q752 486 724 442T650 364T549 311T436 292Q406 292 379 300L383 307Q426 309
472 326T556 375T618 451T642 548Q642 599 607 622T508 646H436L211 89Q198 58 205 48T248 30L305 19L297 0H-48Z" />
<glyph unicode="Q" horiz-adv-x="823" d="M575 -257Q535 -257 499 -240T428 -195T359 -138Q328 -110 295 -86T226 -45T147 -29Q126 -29 117 -36T106 -54T100 -78Q97 -97 90 -112T53 -128Q36 -128 23 -116T9 -81Q9 -45 47 -22T146 2Q206 2 257 -13T352 -53T436
-103Q486 -135 531 -156T622 -177Q665 -177 687 -160T722 -120L746 -126Q722 -197 681 -227T575 -257ZM397 -8Q312 -8 245 25T139 120T100 265Q100 352 137 427T237 560T378 650T537 682Q623 682 689 649T795 554T834 409Q834 322 797 247T696 114T556 25T397 -8ZM398
20Q448 20 496 40T586 99T659 191T708 308T726 445Q726 510 702 557T636 629T538 655Q488 655 440 634T350 575T277 483T227 366T209 228Q209 164 233 117T300 45T398 20Z" />
<glyph unicode="R" horiz-adv-x="818" d="M663 -14Q624 -14 593 7T536 64T483 143Q460 183 437 218T386 276T318 299H295L210 89Q197 58 204 48T248 30L301 19L293 0H-48L-41 19L22 30Q50 35 65 40T89 57T106 89L306 584Q319 616 312 626T268 643L215 654L222
673H499Q615 673 673 639T732 546Q732 499 705 459T634 388T537 339T435 315L434 313Q472 309 498 287T546 231T589 160Q610 124 630 91T675 37T731 15L724 -5Q708 -10 694 -12T663 -14ZM307 328H363Q413 328 459 344T543 388T601 457T622 545Q622 593 585 620T479
647H436L307 328Z" />
<glyph unicode="S" horiz-adv-x="596" d="M242 -9Q160 -9 107 13T13 70Q36 113 52 158T74 255L105 252Q100 230 97 209T94 166Q94 119 112 86T166 35T252 17Q302 17 344 35T412 89T438 177Q438 211 423 233T379 272T315 307Q280 325 248 346T195 400T175 479Q175
527 197 565T257 629T342 670T437 685Q473 685 509 677T578 651Q592 644 606 636T634 628Q646 628 659 631L663 627Q635 588 626 548T612 459L587 460Q594 520 575 564T517 632T423 657Q380 657 343 639T282 588T259 506Q259 476 277 456T323 420T383 389Q415 372
450 351T509 298T534 218Q534 161 510 119T444 48T350 5T242 -9Z" />
<glyph unicode="T" horiz-adv-x="697" d="M90 0L98 19L161 30Q189 35 204 40T228 57T246 89L471 646H382Q335 646 293 625T214 569T147 490H124Q146 526 162 556T190 615T209 673H857Q834 630 820 587T794 490H771Q777 534 770 569T737 625T664 646H575L350 89Q337
58 344 48T387 30L441 19L433 0H90Z" />
<glyph unicode="U" horiz-adv-x="784" d="M306 -12Q230 -12 185 21T131 110T151 237L291 584Q304 616 297 626T253 643L200 654L207 673H550L543 654L479 643Q452 638 437 633T413 616T395 584L251 229Q217 144 241 94T356 43Q414 43 464 66T553 131T615 230L756
579Q768 609 761 622T720 642L660 654L668 673H946L938 654L873 642Q847 638 831 632T806 613T788 581L598 110Q580 110 561 96T515 64Q481 38 431 13T306 -12Z" />
<glyph unicode="V" horiz-adv-x="765" d="M293 -15L272 588Q272 616 263 627T225 645L183 654L190 673H511L504 654L452 645Q426 641 406 634T380 613Q377 606 376 595T375 574L387 114H376L750 584Q767 606 768 618Q771 634 729 643L679 654L687 673H946L938
654L886 643Q866 639 851 634T821 617T788 583L311 -15H293Z" />
<glyph unicode="W" horiz-adv-x="1127" d="M257 -11L273 581Q274 611 265 625T225 645L184 654L191 673H511L504 654L435 642Q399 637 387 625T375 583L362 121L346 128L686 579Q710 610 710 622T678 642L620 654L627 673H916L909 654L838 642Q815 637 803 632T787
614T781 581L764 119L746 126L1104 587Q1125 614 1122 623T1085 641L1027 654L1034 673H1306L1299 654L1238 644Q1204 639 1182 625T1137 581L676 -11H657L680 520L276 -11H257Z" />
<glyph unicode="X" horiz-adv-x="789" d="M361 0L368 19L426 29Q471 37 483 51T486 95L411 310L405 319L311 588Q302 612 289 626T243 647L210 653L218 673H546L538 654L470 643Q433 637 420 625T414 585L489 372L493 363L583 111Q598 70 615 52T665 26L698 20L690
0H361ZM-77 0L-69 19L-17 27Q16 32 46 44T103 77L413 340L427 311L156 82Q134 64 133 52T153 34L217 19L209 0H-77ZM478 339L465 366L726 588Q747 606 750 620T731 639L667 654L674 673H958L950 654L898 646Q865 641 835 629T777 593L478 339Z" />
<glyph unicode="Y" horiz-adv-x="713" d="M362 289L265 607Q259 624 249 633T218 646L185 653L193 673H501L493 655L438 646Q397 639 383 625T377 581L445 358H438L684 590Q704 608 705 620T685 638L622 654L630 673H891L883 654L837 646Q809 642 784 631T730
592L422 303L362 289ZM97 0L104 19L167 30Q196 35 211 40T235 57T252 89L352 337L460 346L357 89Q344 58 351 48T394 30L447 19L440 0H97Z" />
<glyph unicode="Z" horiz-adv-x="676" d="M-51 0L-48 9L645 646H474Q418 646 371 627T282 571T200 484H179Q199 516 217 551T249 620Q255 633 258 646T266 673H807L803 663L108 27H321Q375 27 429 49T532 109T616 192H637Q604 142 579 95T534 0H-51Z" />
<glyph unicode="[" horiz-adv-x="267" d="M-138 -215L250 744H444L430 708H305L-54 -179H71L56 -215H-138Z" />
<glyph unicode="\" horiz-adv-x="437" d="M285 -7L221 711H263L327 -7H285Z" />
<glyph unicode="]" horiz-adv-x="266" d="M444 744L56 -215H-138L-124 -179H1L360 708H235L250 744H444Z" />
<glyph unicode="^" horiz-adv-x="533" d="M77 315L417 658H473L536 315H472L412 610H443L150 315H77Z" />
<glyph unicode="_" horiz-adv-x="542" d="M-116 -93V-52H426V-93H-116Z" />
<glyph unicode="`" horiz-adv-x="550" d="M485 545L384 664Q370 681 371 696Q371 712 382 721T408 731Q419 731 428 725T443 707L506 556L485 545Z" />
<glyph unicode="a" horiz-adv-x="495" d="M63 -8Q35 -8 16 9T-3 68Q-3 107 16 151T68 241T141 328Q188 377 239 408T334 439Q356 439 369 431T391 411H394L452 451H463L318 91Q310 70 313 60T325 49Q336 49 356 65T400 111T450 179L467 168Q405 73 361 33T284
-7Q259 -7 247 12T248 68L269 124H263Q240 90 207 60T136 11T63 -8ZM124 55Q150 55 179 75T236 128T288 200T324 276T338 341Q338 365 327 377T293 389Q268 389 235 371T170 319Q130 277 105 223T79 114Q79 82 91 69T124 55Z" />
<glyph unicode="b" horiz-adv-x="464" d="M128 -8Q92 -8 71 14T49 73Q49 87 52 103T63 137L253 624Q258 637 253 645T227 655L191 660L195 673Q240 680 277 688T351 712L363 706Q352 686 342 664T323 620L209 325H213Q240 356 271 382T336 423T401 439Q428 439
447 423T467 362Q467 322 445 272T385 173T303 83T212 17T128 -8ZM171 44Q197 44 229 62T292 112Q317 138 338 171T372 242T385 318Q385 348 373 362T337 376Q313 376 285 357T229 307T177 239T139 163T125 93Q125 67 137 56T171 44Z" />
<glyph unicode="c" horiz-adv-x="367" d="M103 -8Q68 -8 44 16T19 88Q19 146 40 197T94 293T163 370Q199 402 236 420T303 439Q341 439 360 419T380 372Q380 351 371 339T343 327Q321 327 315 337T307 362Q306 375 301 384T278 394Q253 394 222 376T162 324T115
246T96 148Q96 94 111 75T152 56Q186 56 226 88T302 179L321 167Q296 124 261 84T184 18T103 -8Z" />
<glyph unicode="d" horiz-adv-x="495" d="M63 -8Q35 -8 16 9T-3 68Q-3 107 16 151T68 241T141 328Q188 377 239 408T334 439Q349 439 360 435T379 424L460 624Q466 640 460 646T433 655L398 660L402 673Q446 680 483 688T557 712L570 706Q558 686 548 664T530
620L318 91Q310 70 313 60T325 49Q336 49 356 65T400 111T450 179L467 168Q405 73 361 33T284 -7Q259 -7 247 12T248 68L269 124H263Q240 90 207 60T136 11T63 -8ZM124 55Q150 55 179 75T236 128T288 200T324 276T338 341Q338 365 327 377T293 389Q268 389 235
371T170 319Q130 277 105 223T79 114Q79 82 91 69T124 55Z" />
<glyph unicode="e" horiz-adv-x="369" d="M105 -8Q62 -8 42 21T22 93Q22 146 42 199T96 299T171 381Q203 407 239 423T310 439Q344 439 361 423T378 381Q378 348 349 312T256 247T89 206L92 231Q164 237 210 260T279 311T302 361Q302 392 269 392Q246 392 218
375T162 326T118 248T100 143Q100 103 111 80T157 56Q178 56 204 71T256 113T304 179L323 168Q297 120 259 81T181 17T105 -8Z" />
<glyph unicode="f" horiz-adv-x="314" d="M-87 -247Q-115 -247 -140 -237T-182 -210T-199 -173Q-199 -148 -185 -136T-152 -124Q-134 -124 -120 -136T-105 -187Q-105 -205 -97 -212T-77 -220Q-34 -220 -9 -137L185 501Q220 616 267 663T390 711Q448 711 480 689T512
634Q512 620 502 606T469 592Q443 592 430 603T417 635Q417 640 417 645T418 654Q418 668 407 675T380 683Q337 683 313 644T262 516L64 -138Q52 -138 45 -149T26 -178Q10 -202 -18 -224T-87 -247ZM84 401L96 431H349L336 401H84Z" />
<glyph unicode="g" horiz-adv-x="476" d="M66 -259Q18 -259 -22 -247T-87 -212T-111 -156Q-111 -112 -83 -81T-7 -27T99 10L148 -3Q97 -15 57 -34T-7 -80T-30 -143Q-30 -185 8 -204T100 -223Q159 -223 205 -211T276 -174T302 -119Q302 -101 292 -87T249 -59T150
-33Q88 -21 52 -8T2 21T-13 59Q-13 84 28 106T146 138L195 123Q162 122 133 117T85 103T66 77Q66 67 75 59T114 44T202 24Q300 5 340 -21T380 -92Q380 -138 337 -176T223 -236T66 -259ZM147 2L98 18Q157 34 220 45T348 66L351 49Q302 40 249 28T147 2ZM195 147Q220
147 243 165T286 212T316 274T327 341Q327 378 308 405Q293 415 269 415Q243 415 219 397T177 350T148 288T137 223Q136 194 149 171T195 147ZM196 122Q160 122 131 135T85 174T67 236Q67 268 79 303T117 370T180 420T266 439Q286 439 305 435T342 425Q359 420
376 417T407 413Q422 413 431 419T440 442Q440 450 437 458T434 475Q434 502 448 515T480 529Q500 529 509 517T519 488Q519 466 506 441T468 399T408 382Q398 382 388 385T368 393L366 388Q394 362 394 318Q394 286 381 252T341 188T278 141T196 122Z" />
<glyph unicode="h" horiz-adv-x="535" d="M5 -10L253 624Q259 640 253 646T227 655L191 660L195 673Q240 680 277 688T350 712L363 706Q351 686 341 664T323 620L153 184H157Q172 210 195 243T246 311T305 374T369 421T434 439Q467 439 478 415T474 355L361 87Q354
68 357 59T370 49Q381 49 401 65T445 111T494 179L511 168Q447 73 400 33T320 -7Q290 -7 278 15T282 77L391 333Q400 354 397 366T377 378Q358 378 321 349T241 267T156 147T85 0L5 -10Z" />
<glyph unicode="i" horiz-adv-x="321" d="M106 -7Q78 -7 65 13T62 64L172 341Q181 365 178 374T167 383Q156 383 136 363T91 314T46 254L29 265Q91 353 133 396T214 439Q242 439 255 417T254 356L148 91Q139 69 143 59T155 49Q166 49 186 65T230 111T280 179L297
168Q233 73 186 33T106 -7ZM296 565Q272 565 254 583T235 626Q235 652 253 670T296 688Q322 688 340 670T359 625Q359 602 341 584T296 565Z" />
<glyph unicode="j" horiz-adv-x="262" d="M-106 -258Q-151 -258 -180 -240T-209 -195Q-209 -173 -196 -162T-163 -151Q-144 -151 -131 -161T-117 -206Q-117 -221 -110 -227T-91 -234Q-69 -234 -48 -207T-5 -122L162 341Q172 365 169 374T158 383Q147 383 126 363T81
314T37 254L20 265Q81 353 123 396T204 439Q232 439 246 417T244 356L65 -129Q53 -129 42 -142T16 -173Q3 -192 -14 -212T-53 -245T-106 -258ZM270 565Q246 565 228 583T209 626Q209 652 227 670T270 688Q296 688 314 670T333 625Q333 602 315 584T270 565Z" />
<glyph unicode="k" horiz-adv-x="515" d="M5 -10L253 624Q258 639 252 645T226 655L191 660L195 673Q237 679 275 688T350 712L363 705Q351 686 341 664T323 620L166 215V212L84 0L5 -10ZM328 -7Q294 -7 271 22T225 113Q220 129 212 149T194 184T167 200Q151 200
132 180L113 188Q139 214 161 226T202 238Q238 238 261 208T305 119Q330 48 359 48Q381 48 410 82T474 177L491 169Q449 86 407 40T328 -7ZM178 224L164 234Q185 268 212 304T271 370T337 420T405 439Q434 439 449 427T464 389Q464 366 446 337T396 281T323 234T235
213L218 230Q249 231 279 243T334 273T374 312T389 355Q389 368 382 376T358 384Q324 384 276 340T178 224Z" />
<glyph unicode="l" horiz-adv-x="297" d="M78 -7Q50 -7 37 13T34 64L253 624Q259 640 253 646T227 655L191 660L195 673Q240 680 279 688T354 712L366 706Q355 686 345 664T326 620L119 89Q112 68 115 59T127 49Q143 49 176 82T252 179L269 168Q205 73 158 33T78 -7Z" />
<glyph unicode="m" horiz-adv-x="788" d="M32 -10L172 342Q181 364 178 373T167 383Q156 383 136 363T91 314T46 254L29 264Q90 353 132 396T212 439Q240 439 254 418T252 356L180 184H182Q198 210 220 243T269 311T326 374T388 421T451 439Q482 439 494 416T491
356L415 184H418Q437 216 466 259T530 344T605 412T682 439Q715 439 727 415T724 355L614 87Q607 68 610 59T623 49Q634 49 654 65T698 111T747 179L764 168Q701 73 655 33T575 -7Q545 -7 533 15T537 77L643 333Q652 354 649 366T630 378Q610 378 575 349T499 267T418
147T348 0L268 -10L408 333Q416 350 415 364T393 378Q375 378 340 349T264 267T182 147T112 0L32 -10Z" />
<glyph unicode="n" horiz-adv-x="562" d="M32 -10L172 342Q181 364 178 373T167 383Q156 383 136 363T91 314T46 254L29 264Q90 353 132 396T212 439Q243 439 255 416T252 356L180 184H184Q200 210 222 243T273 311T333 374T396 421T461 439Q494 439 505 415T501
355L388 87Q381 68 384 59T397 49Q408 49 428 65T472 111T521 179L538 168Q474 73 427 33T347 -7Q317 -7 305 15T309 77L418 333Q427 354 424 366T404 378Q385 378 348 349T268 267T183 147T112 0L32 -10Z" />
<glyph unicode="o" horiz-adv-x="447" d="M167 -8Q107 -8 73 31T39 134Q39 184 57 237T109 336T186 410T282 439Q343 439 376 399T409 297Q409 247 391 194T340 95T264 21T167 -8ZM157 16Q183 16 209 39T259 99T301 180T330 266T341 341Q341 413 291 413Q264 413
238 390T188 331T146 251T118 165T107 90Q107 56 120 36T157 16Z" />
<glyph unicode="p" horiz-adv-x="492" d="M-140 -250L-134 -234L-91 -223Q-74 -219 -66 -211T-50 -189L179 380L278 470L213 306H217Q245 344 281 374T355 421T422 439Q450 439 469 422T489 361Q489 322 473 275T429 182T365 97T289 35T210 12Q165 12 135 29T104
83Q104 105 116 114T145 124Q164 124 176 112T189 65Q189 52 194 45T214 38Q244 38 272 57T324 107T367 176T396 254T407 328Q407 381 361 381Q339 381 312 363T258 314T208 246T171 173L25 -191Q14 -217 39 -223L88 -234L82 -250H-140ZM34 232L23 249Q71 277 104
305T159 361T197 419T227 478Q231 486 239 490T259 494Q269 494 276 490T281 478Q270 440 236 394T149 306T34 232Z" />
<glyph unicode="q" horiz-adv-x="448" d="M35 -250L42 -234L89 -223Q107 -219 116 -212T130 -191L246 96H241Q205 54 157 23T63 -8Q35 -8 16 9T-3 68Q-3 108 18 155T74 250T151 338Q198 382 245 410T334 439Q355 439 369 431T391 411H394L452 451H463L206 -189Q195
-216 219 -223L261 -234L255 -250H35ZM124 55Q150 55 179 75T236 128T288 200T324 276T338 341Q338 365 327 377T293 389Q268 389 235 371T170 319Q130 277 105 223T79 114Q79 82 91 69T124 55Z" />
<glyph unicode="r" horiz-adv-x="434" d="M32 -10L172 342Q181 364 178 373T167 383Q156 383 136 363T91 314T46 254L29 264Q90 353 132 396T212 439Q243 439 255 416T252 356L180 184H182Q200 216 224 259T279 344T343 412T414 439Q443 439 459 424T475 384Q475
357 460 342T424 326Q409 326 400 333T388 352Q385 365 380 372T366 379Q342 379 310 347T244 261T176 140T113 0L32 -10Z" />
<glyph unicode="s" horiz-adv-x="366" d="M133 -8Q98 -8 67 4T18 42T0 109Q0 139 15 153T48 168Q65 168 78 157T92 126Q92 116 88 108T78 94Q71 87 66 80T60 63Q60 41 80 29T130 17Q163 17 187 36T211 98Q211 127 197 152T162 203Q142 231 124 261T106 330Q106
365 124 389T173 426T240 439Q284 439 318 418T353 356Q353 335 344 323T314 311Q294 311 285 321T275 349Q275 351 275 354T277 362Q278 366 278 370T279 376Q279 395 265 405T231 416Q209 416 190 401T171 351Q171 324 187 298T222 247Q243 219 260 190T278 119Q278
77 257 49T202 7T133 -8Z" />
<glyph unicode="t" horiz-adv-x="310" d="M74 -8Q45 -8 33 13T32 66L164 400H91L103 430H178L210 510L289 520L253 431H335L323 401H241L115 85Q108 66 112 57T125 48Q136 48 154 65T196 112T243 178L260 167Q197 72 155 32T74 -8Z" />
<glyph unicode="u" horiz-adv-x="556" d="M101 -8Q68 -8 57 16T60 76L174 344Q182 363 179 373T165 383Q155 383 135 366T91 320T41 252L24 263Q89 359 135 399T215 439Q245 439 257 416T253 354L144 98Q135 78 138 66T157 53Q177 53 212 82T290 164T374 285T444
431L524 440L383 88Q374 66 377 57T388 48Q399 48 420 67T465 117T509 176L526 166Q466 78 424 35T344 -8Q313 -8 301 14T304 75L376 247H372Q357 221 335 188T284 120T226 57T163 10T101 -8Z" />
<glyph unicode="v" horiz-adv-x="520" d="M211 -7Q166 -7 141 19T115 94Q115 142 128 181T162 251T205 309T246 358L244 361Q237 360 231 359T219 358Q204 358 192 361T167 368Q152 372 138 374T113 377Q91 377 78 370T64 350Q64 340 71 336T89 328Q104 323 112
316T120 293Q120 277 109 267T82 257Q60 257 46 277T32 324Q32 357 48 383T91 424T150 439Q162 439 173 437T195 431Q209 427 226 423T260 418Q273 418 285 421T307 431Q315 437 318 440T330 444Q340 444 340 434Q340 429 334 424T320 408Q292 374 268 346T227
288T200 225T190 145Q190 96 210 75T262 53Q292 53 325 70T388 119T436 194T455 289Q455 317 445 331T422 356Q412 365 403 374T394 402Q394 430 412 442T447 455Q473 455 488 432T504 369Q504 318 489 265T445 163T381 76T301 15T211 -7Z" />
<glyph unicode="w" horiz-adv-x="697" d="M212 -7Q167 -7 142 19T116 92Q116 142 129 181T162 252T205 309T246 358L244 361Q237 360 231 359T219 358Q204 358 192 361T167 368Q152 373 139 375T114 377Q91 377 78 370T64 350Q64 340 72 336T89 328Q104 323 112
316T120 293Q120 277 110 267T82 257Q60 257 46 278T32 325Q32 358 48 383T92 424T150 439Q162 439 173 437T195 431Q209 427 226 423T260 419Q274 419 285 421T308 431Q315 437 319 440T330 444Q341 444 341 434Q341 429 335 424T320 409Q293 375 269 347T228
289T200 226T190 146Q190 97 209 75T260 53Q294 53 327 73T389 125T441 193T476 264T489 321Q489 360 466 360Q449 360 432 343T399 297T375 236T366 169Q366 113 382 84T442 55Q484 55 518 76T576 131T614 206T628 289Q628 317 618 331T596 356Q585 365 576 374T567
402Q567 430 585 442T620 455Q646 455 661 432T677 369Q677 297 654 230T591 109T504 24T411 -8Q369 -8 344 25T319 137Q319 188 333 234T371 317T421 373T472 393Q495 393 506 379T518 338Q518 302 501 257T453 165T383 80T300 17T212 -7Z" />
<glyph unicode="x" horiz-adv-x="559" d="M301 -7Q270 -7 252 16T234 82Q235 157 261 222T327 336T410 412T487 439Q517 439 535 422T554 374Q554 351 544 339T514 327Q494 327 489 338T481 363Q480 374 477 383T459 393Q438 393 411 377T360 327T319 247T303
136Q303 90 315 71T347 52Q379 52 418 85T495 179L513 168Q486 124 452 84T378 19T301 -7ZM72 -8Q43 -8 24 9T5 56Q5 80 15 92T45 104Q66 104 71 93T78 68Q80 56 83 47T100 37Q121 37 148 54T199 103T240 184T256 294Q256 341 244 359T212 378Q180 378 142 345T64
252L46 263Q73 306 107 346T181 412T258 438Q289 438 307 415T325 349Q324 274 298 209T232 95T149 19T72 -8Z" />
<glyph unicode="y" horiz-adv-x="470" d="M-73 -284Q-104 -284 -133 -274T-181 -245T-201 -201Q-201 -176 -187 -163T-153 -150Q-125 -150 -117 -168T-104 -207Q-100 -227 -95 -243T-68 -260Q-20 -260 24 -233T106 -158T171 -52T214 70T229 192Q229 295 202 348T128
402Q94 402 76 381T57 328Q57 310 64 292T87 259L79 247Q55 263 44 287T32 335Q32 375 59 407T140 439Q182 439 212 418T263 362T293 282T303 190Q303 145 295 102T273 24L277 22Q298 43 320 77T361 150T392 227T404 295Q404 324 393 337T367 359Q357 367 348 376T339
403Q339 430 358 442T395 455Q419 455 434 433T449 370Q449 323 432 262T381 133T301 -1Q268 -47 225 -96T133 -188T31 -257T-73 -284Z" />
<glyph unicode="z" horiz-adv-x="411" d="M-27 -6Q-34 -6 -40 1T-46 13Q-46 21 -37 27T-10 49L395 437L415 418L-21 -1L25 67Q43 84 62 92T100 101Q124 101 146 91T191 67Q213 55 233 45T279 34Q286 34 293 38T301 54Q301 63 296 70T282 84Q273 92 266 102T259
127Q259 145 270 159T306 173Q334 173 346 153T358 112Q358 71 320 32Q301 11 282 3T226 -5Q194 -5 168 2T119 18Q101 25 84 30T49 35Q29 35 13 24T-14 1Q-20 -6 -27 -6ZM111 290Q62 290 62 346Q62 362 70 377T91 404Q107 420 126 429T162 439Q188 439 209 432T249
417Q268 408 285 403T319 397Q333 397 347 402T376 423Q383 430 388 434T399 439Q403 439 410 435T420 425T417 414Q406 406 396 398T377 380L334 364Q314 351 296 343T262 335Q244 335 227 344T192 364Q176 375 159 385T122 395Q112 395 107 390T101 378Q101 370
107 366T120 357Q131 352 139 346T148 327Q148 311 138 301T111 290Z" />
<glyph unicode="{" horiz-adv-x="352" d="M139 -216Q97 -216 55 -209T-14 -181T-41 -118Q-41 -75 -15 -27T41 66Q67 104 87 139T107 201Q107 226 89 237T37 249L49 280Q96 280 124 294T167 335T190 399T205 482Q213 525 221 564T246 637T296 693T384 730T525 744L515
715Q452 715 412 697T347 648T309 578T282 497Q266 437 256 395T230 326T189 285T116 265V263Q136 259 145 248T157 220T160 180Q160 153 139 112T94 28Q72 -10 56 -47T39 -113Q39 -151 68 -168T151 -187L139 -216Z" />
<glyph unicode="|" horiz-adv-x="320" d="M161 704H212V-253H161V704Z" />
<glyph unicode="}" horiz-adv-x="351" d="M252 744Q295 744 336 738T405 710T433 647Q433 603 407 556T350 463Q324 424 304 389T284 327Q284 302 302 291T354 280L342 249Q295 249 267 235T225 194T202 130T186 47Q179 3 171 -36T145 -109T95 -165T7 -202T-134
-216L-124 -187Q-61 -187 -21 -169T44 -120T82 -49T109 31Q125 92 136 134T161 203T202 244T275 263V265Q256 271 247 281T234 309T231 349Q231 376 252 417T298 500Q319 538 335 575T352 641Q352 680 323 697T240 715L252 744Z" />
<glyph unicode="~" horiz-adv-x="541" d="M149 287L113 295Q124 342 152 361T216 381Q244 381 273 374T330 356Q356 346 381 339T427 331Q451 331 466 341T489 379L525 372Q515 325 486 306T422 286Q394 286 365 293T309 311Q283 320 258 327T211 335Q188 335
173 325T149 287Z" />
<glyph unicode="&#xa0;" horiz-adv-x="214" />
<glyph unicode="&#xa1;" horiz-adv-x="233" d="M156 278L13 -170H-96L122 278H156ZM205 496Q231 496 249 478T267 434Q267 407 249 389T205 370Q179 370 160 388T141 434Q141 459 160 477T205 496Z" />
<glyph unicode="&#xa2;" horiz-adv-x="367" d="M-20 -86L335 529L357 518L3 -98L-20 -86ZM103 -8Q68 -8 44 16T19 88Q19 146 40 197T94 293T163 370Q199 402 236 420T303 439Q341 439 360 419T380 372Q380 351 371 339T343 327Q321 327 315 337T307 362Q306 375
301 384T278 394Q253 394 222 376T162 324T115 246T96 148Q96 94 111 75T152 56Q186 56 226 88T302 179L321 167Q296 124 261 84T184 18T103 -8Z" />
<glyph unicode="&#xa3;" horiz-adv-x="640" d="M-66 -99Q-74 -99 -83 -93T-92 -71Q-92 -43 -68 -13T-5 43T80 85T171 101Q212 101 238 88T282 55T310 12Q324 -15 339 -33T381 -51Q414 -51 434 -30T455 20Q455 28 454 35T451 51Q450 58 449 65T447 79Q447 104 465
116T503 129Q519 129 529 121T540 95Q540 65 524 33T480 -27T416 -72T340 -90Q299 -90 274 -75T233 -38T205 6Q192 34 178 55T139 76Q115 76 92 63T49 32T16 -3T-2 -27L-9 -28Q34 22 63 61T114 133T155 198Q181 242 207 290T278 405Q337 492 396 554T522 648T663
681Q714 681 743 662T772 609Q772 586 763 569T738 543T700 533Q684 533 672 542T660 567Q660 582 666 590T679 606Q686 611 691 617T696 633Q696 643 682 648T653 653Q616 653 579 629T499 554T405 423Q347 332 281 244T150 84Q123 53 93 21T32 -38T-24 -82T-66
-99ZM52 246L75 281H451L427 246H52Z" />
<glyph unicode="&#xa4;" horiz-adv-x="638" d="M156 116L124 152L214 237Q192 262 182 292T171 353Q171 417 212 470L126 552L158 585L251 501Q271 518 302 527T366 536Q395 536 424 527T471 503L561 586L592 553L508 473Q529 446 539 417T549 358Q549 326 539
296T509 235L594 153L563 117L470 204Q447 189 417 180T356 170Q324 170 297 179T249 204L156 116ZM359 211Q392 211 420 227T465 275T482 353Q482 418 449 457T360 496Q318 496 291 476T250 424T237 353Q237 307 254 275T299 227T359 211Z" />
<glyph unicode="&#xa5;" horiz-adv-x="713" d="M181 324L194 356H628L615 324H181ZM132 201L145 233H578L565 201H132ZM362 289L265 607Q259 624 249 633T218 646L185 653L193 673H501L493 655L438 646Q397 639 383 625T377 581L445 358H438L684 590Q704 608 705
620T685 638L622 654L630 673H891L883 654L837 646Q809 642 784 631T730 592L422 303L362 289ZM97 0L104 19L167 30Q196 35 211 40T235 57T252 89L352 337L460 346L357 89Q344 58 351 48T394 30L447 19L440 0H97Z" />
<glyph unicode="&#xa6;" horiz-adv-x="284" d="M155 317V688H204V317H155ZM204 -182H155V187H204V-182Z" />
<glyph unicode="&#xa7;" horiz-adv-x="463" d="M185 87L204 115Q238 116 267 135T313 187T331 255Q331 291 313 321T272 378Q248 406 226 439T204 520Q204 572 236 613T318 677T421 700Q482 700 509 680T537 632Q537 613 529 596T505 569T469 559Q451 559 442
567T433 587Q433 598 437 606T447 623Q452 629 455 636T459 649Q459 672 409 672Q375 672 348 653T305 604T289 538Q289 501 306 470T347 411Q370 383 391 349T412 277Q412 234 392 199T339 139T265 100T185 87ZM44 -208Q-21 -208 -53 -186T-85 -130Q-85 -109 -75
-89T-48 -55T-7 -41Q10 -41 18 -50T26 -71Q26 -83 20 -93T6 -113Q0 -121 -5 -128T-10 -145Q-10 -160 9 -170T55 -180Q90 -180 119 -161T165 -111T183 -42Q183 -5 169 25T132 84Q108 114 85 154T62 236Q62 288 93 326T172 385T273 408V381Q237 381 207 362T160 312T142
247Q142 212 159 184T201 124Q223 95 244 62T265 -12Q265 -51 248 -86T200 -149T129 -192T44 -208Z" />
<glyph unicode="&#xa8;" horiz-adv-x="541" d="M335 566Q313 566 296 583T279 622Q279 646 296 663T335 680Q359 680 375 663T392 622Q392 600 376 583T335 566ZM534 566Q512 566 495 583T478 622Q478 646 495 663T534 680Q558 680 574 663T591 622Q591 600 575
583T534 566Z" />
<glyph unicode="&#xa9;" horiz-adv-x="805" d="M454 3Q344 3 268 48T151 167T111 332Q111 399 134 461T203 572T311 651T454 680Q532 680 595 655T703 584T772 479T796 353Q796 286 773 223T706 111T598 32T454 3ZM462 152Q402 152 357 178T286 247T260 345Q260
402 287 446T360 514T460 539Q489 539 508 534T542 523Q552 519 562 516T583 513Q589 513 594 514T604 516L605 515Q602 498 603 475T613 417H592Q577 456 546 484T463 513Q407 513 374 468T340 346Q340 270 371 226T461 182Q506 182 539 202T593 276H615Q610 249
605 223T600 172H595Q583 172 568 170T536 164Q518 160 499 156T462 152ZM456 39Q539 39 605 79T711 190T750 349Q750 412 728 466T665 560T570 622T453 645Q390 645 336 620T242 550T180 451T157 335Q157 245 196 178T304 75T456 39Z" />
<glyph unicode="&#xaa;" horiz-adv-x="479" d="M191 370Q166 370 151 383T135 428Q135 458 151 492T196 561T257 627Q297 666 341 689T421 712Q439 712 451 706T470 691H471L521 722H530L409 451Q403 435 405 427T415 418Q425 418 440 430T476 464T517 516L535
503Q483 430 445 401T379 371Q358 371 350 386T352 429L369 472H364Q344 446 315 423T253 385T191 370ZM245 420Q266 420 290 436T338 477T381 531T411 588T423 638Q423 657 415 665T386 674Q365 674 338 660T282 618Q248 586 227 548T206 467Q206 442 217 431T245
420Z" />
<glyph unicode="&#xab;" horiz-adv-x="372" d="M261 61L173 199L178 211L372 342L388 333L248 202L282 73L261 61ZM104 61L16 199L21 211L215 342L231 333L91 202L125 73L104 61Z" />
<glyph unicode="&#xac;" horiz-adv-x="541" d="M484 223V388H103V431H528V223H484Z" />
<glyph unicode="&#xad;" horiz-adv-x="279" d="M50 319H285V251H50V319Z" />
<glyph unicode="&#xae;" horiz-adv-x="535" d="M361 216Q287 216 234 247T154 329T126 442Q126 488 142 530T189 607T263 661T361 681Q434 681 486 651T568 569T597 456Q597 395 569 340T488 250T361 216ZM363 247Q419 247 463 274T533 347T559 454Q559 510 533
554T462 625T361 651Q297 651 254 622T189 546T166 449Q166 399 188 353T255 277T363 247ZM479 339Q456 339 439 354T404 392Q389 413 374 428T332 444H325V380Q325 370 329 367T348 360L362 355V344H242V355L256 360Q270 364 273 367T277 380V544Q277 555 274
558T256 565L242 569V580H340Q392 580 419 563T447 515Q447 491 427 476T376 456V454Q401 454 418 437T450 399Q464 380 477 365T505 349V343Q500 341 493 340T479 339ZM325 463H340Q363 463 379 476T396 513Q396 539 379 552T336 566H325V463Z" />
<glyph unicode="&#xaf;" horiz-adv-x="541" d="M269 596L287 639H597L579 596H269Z" />
<glyph unicode="&#xb0;" horiz-adv-x="375" d="M319 402Q281 402 250 421T199 472T180 542Q180 580 199 612T249 663T319 682Q358 682 389 663T440 612T459 542Q459 504 440 472T390 421T319 402ZM318 453Q355 453 382 479T409 543Q409 581 382 607T318 634Q281
634 254 608T227 543Q227 506 254 480T318 453Z" />
<glyph unicode="&#xb1;" horiz-adv-x="539" d="M270 224V365H95V408H270V548H313V408H488V365H313V224H270ZM95 128V171H488V128H95Z" />
<glyph unicode="&#xb2;" horiz-adv-x="314" d="M86 349L89 356L219 447Q249 468 279 497T328 560T348 629Q348 647 338 656T306 666Q280 666 265 658T249 636Q249 627 252 622T255 608Q255 596 244 589T220 582Q210 582 201 587T192 607Q192 633 211 650T260 677T325
686Q367 686 397 672T427 625Q427 598 410 573T366 524T307 479T247 438L142 369L186 413H295Q311 413 319 418T341 440L353 456H369L308 349H86Z" />
<glyph unicode="&#xb3;" horiz-adv-x="322" d="M192 344Q152 344 128 361T103 410Q103 424 112 437T136 450Q152 450 158 442T164 426Q164 410 154 404T143 388Q143 378 157 372T192 365Q222 365 247 382T289 425T306 479Q306 498 295 509T257 522L217 511L215
526L240 535Q262 543 286 556T329 589T348 636Q348 650 339 658T313 666Q289 666 272 659T255 641Q255 634 258 629T262 612Q262 601 252 595T229 588Q218 588 209 594T200 612Q200 636 219 652T267 677T327 686Q367 686 393 673T419 632Q419 607 401 591T359 565T312
549L311 547Q349 544 367 525T386 479Q386 448 368 423T320 381T257 354T192 344Z" />
<glyph unicode="&#xb4;" horiz-adv-x="541" d="M347 541L334 558L503 703Q513 711 521 714T537 718Q552 718 561 708T571 685Q571 675 564 665T541 646L347 541Z" />
<glyph unicode="&#xb5;" horiz-adv-x="549" d="M-72 -260L169 338Q178 361 175 371T163 381Q151 381 131 361T86 312T41 252L24 262Q83 351 124 394T201 437Q229 437 243 415T241 353L137 96Q131 80 132 66T153 51Q174 51 209 80T287 162T370 283T441 429L513
439L373 87Q364 67 367 58T378 49Q389 49 409 65T453 111T503 179L520 168Q458 73 412 33T334 -7Q306 -7 296 14T297 65Q316 109 335 155T371 245H366Q347 213 318 170T252 85T176 17T99 -9Q98 -9 98 -9T98 -7L18 -242L-72 -260Z" />
<glyph unicode="&#xb6;" horiz-adv-x="642" d="M90 -229Q40 -229 6 -212T-45 -166T-63 -102Q-63 -62 -48 -23T-5 50T60 104T141 124Q176 124 192 107T209 67Q209 39 190 19T142 -1Q115 -1 104 11T93 39Q93 46 95 53T97 63Q97 67 94 69T86 71Q66 71 46 55T11 14T-14
-41T-24 -97Q-24 -146 10 -170T99 -194Q160 -194 210 -163T301 -77T369 46L441 226H337Q276 226 234 249T169 310T147 397Q147 461 173 511T250 598T369 653T523 673H785L778 656L715 645Q687 640 672 635T648 618T630 586L414 49Q382 -30 338 -93T233 -192T90
-229Z" />
<glyph unicode="&#xb7;" horiz-adv-x="271" d="M184 269Q156 269 136 289T115 337Q115 367 135 387T184 408Q213 408 233 388T254 337Q254 310 234 290T184 269Z" />
<glyph unicode="&#xb8;" horiz-adv-x="541" d="M-20 -247L-8 -220Q18 -217 46 -212T98 -196T137 -172T152 -136Q152 -117 132 -107T70 -95L135 0H170L143 -40Q188 -46 212 -61T237 -110Q237 -142 214 -166T152 -208T68 -235T-20 -247Z" />
<glyph unicode="&#xb9;" horiz-adv-x="268" d="M83 349L89 365L117 370Q139 373 148 376T163 386T174 406L269 644Q275 656 259 656L211 654L218 671L358 691L243 406Q235 386 238 380T271 370L295 365L288 349H83Z" />
<glyph unicode="&#xba;" horiz-adv-x="380" d="M270 372Q224 372 195 403T166 484Q166 524 181 564T223 639T284 693T357 713Q401 713 430 682T459 601Q459 564 445 525T405 450T345 394T270 372ZM264 394Q288 394 313 419T359 482T392 561T405 631Q405 658 394
673T362 689Q337 689 312 664T266 601T234 524T221 454Q221 426 233 410T264 394Z" />
<glyph unicode="&#xbb;" horiz-adv-x="373" d="M257 341L345 203L340 191L146 60L130 69L270 200L237 329L257 341ZM355 341L443 203L438 191L244 60L228 69L368 200L335 329L355 341Z" />
<glyph unicode="&#xbc;" horiz-adv-x="603" d="M366 0L469 257L499 271L307 109L302 117H490Q501 117 506 120T518 133L533 151H545L494 62H231L238 79L549 340H567L430 0H366ZM83 349L89 365L117 370Q139 373 148 376T163 386T174 406L269 644Q275 656 259 656L211
654L218 671L358 691L243 406Q235 386 238 380T271 370L295 365L288 349H83ZM-22 0L683 680H745L41 0H-22Z" />
<glyph unicode="&#xbd;" horiz-adv-x="654" d="M83 349L89 365L117 370Q139 373 148 376T163 386T174 406L269 644Q275 656 259 656L211 654L218 671L358 691L243 406Q235 386 238 380T271 370L295 365L288 349H83ZM-22 0L683 680H745L41 0H-22ZM281 0L284 7L414
98Q444 119 474 148T523 211T543 280Q543 298 533 307T501 317Q475 317 460 309T444 287Q444 278 447 273T450 259Q450 247 439 240T415 233Q405 233 396 238T387 258Q387 284 406 301T455 328T520 337Q562 337 592 323T622 276Q622 249 605 224T561 175T502 130T442
89L337 20L381 64H490Q506 64 514 69T536 91L548 107H564L503 0H281Z" />
<glyph unicode="&#xbe;" horiz-adv-x="652" d="M408 0L511 257L541 271L349 109L344 117H532Q543 117 548 120T560 133L575 151H587L536 62H273L280 79L591 340H609L472 0H408ZM27 0L732 680H794L90 0H27ZM192 344Q152 344 128 361T103 410Q103 424 112 437T136
450Q152 450 158 442T164 426Q164 410 154 404T143 388Q143 378 157 372T192 365Q222 365 247 382T289 425T306 479Q306 498 295 509T257 522L217 511L215 526L240 535Q262 543 286 556T329 589T348 636Q348 650 339 658T313 666Q289 666 272 659T255 641Q255 634
258 629T262 612Q262 601 252 595T229 588Q218 588 209 594T200 612Q200 636 219 652T267 677T327 686Q367 686 393 673T419 632Q419 607 401 591T359 565T312 549L311 547Q349 544 367 525T386 479Q386 448 368 423T320 381T257 354T192 344Z" />
<glyph unicode="&#xbf;" horiz-adv-x="371" d="M312 290Q287 227 262 192T204 139T120 114Q82 108 62 100T32 80T12 45Q4 25 4 13Q4 -15 42 -21L199 -50L145 -186H126L133 -159Q137 -140 131 -132T110 -121L21 -104Q-13 -98 -30 -82T-47 -37Q-47 -7 -27 44Q2 114
44 156T162 209Q201 215 223 224T259 250T281 290H312ZM350 495Q375 495 393 477T411 433Q411 407 393 389T350 370Q324 370 306 388T287 433Q287 459 305 477T350 495Z" />
<glyph unicode="&#xc0;" horiz-adv-x="759" d="M-82 0L-73 19L-18 29Q16 34 38 46T80 81L534 584L537 635Q560 636 580 647T615 673T635 698H645L592 94Q589 59 599 47T636 28L674 19L665 0H353L362 19L419 29Q462 36 477 49T495 98L534 555H547L115 80Q97 59
97 48T121 32L185 19L176 0H-82ZM239 228L260 260H550L534 228H239ZM715 734L570 793Q551 800 544 814Q537 829 542 842T561 863Q570 868 581 867T603 857L728 753L715 734Z" />
<glyph unicode="&#xc1;" horiz-adv-x="759" d="M-82 0L-73 19L-18 29Q16 34 38 46T80 81L534 584L537 635Q560 636 580 647T615 673T635 698H645L592 94Q589 59 599 47T636 28L674 19L665 0H353L362 19L419 29Q462 36 477 49T495 98L534 555H547L115 80Q97 59
97 48T121 32L185 19L176 0H-82ZM239 228L260 260H550L534 228H239ZM558 736L550 756L751 852Q762 857 770 858T788 857Q802 854 809 842T812 817Q810 808 800 800T772 787L558 736Z" />
<glyph unicode="&#xc2;" horiz-adv-x="759" d="M-82 0L-73 19L-18 29Q16 34 38 46T80 81L534 584L537 635Q560 636 580 647T615 673T635 698H645L592 94Q589 59 599 47T636 28L674 19L665 0H353L362 19L419 29Q462 36 477 49T495 98L534 555H547L115 80Q97 59
97 48T121 32L185 19L176 0H-82ZM239 228L260 260H550L534 228H239ZM505 721L490 739L676 867H708L779 733L753 721L665 792L505 721Z" />
<glyph unicode="&#xc3;" horiz-adv-x="759" d="M-82 0L-73 19L-18 29Q16 34 38 46T80 81L534 584L537 635Q560 636 580 647T615 673T635 698H645L592 94Q589 59 599 47T636 28L674 19L665 0H353L362 19L419 29Q462 36 477 49T495 98L534 555H547L115 80Q97 59
97 48T121 32L185 19L176 0H-82ZM239 228L260 260H550L534 228H239ZM337 718L343 732H354Q389 732 407 736T438 750T462 774Q491 805 526 830T606 870T704 885Q756 885 788 869T836 828T856 772Q858 757 862 748T883 736T934 732H945L939 718H816Q827 747 816 773T772
815T684 831Q630 831 585 816T507 774T460 718H337Z" />
<glyph unicode="&#xc4;" horiz-adv-x="759" d="M-82 0L-73 19L-18 29Q16 34 38 46T80 81L534 584L537 635Q560 636 580 647T615 673T635 698H645L592 94Q589 59 599 47T636 28L674 19L665 0H353L362 19L419 29Q462 36 477 49T495 98L534 555H547L115 80Q97 59
97 48T121 32L185 19L176 0H-82ZM239 228L260 260H550L534 228H239ZM550 742Q528 742 511 759T494 798Q494 822 511 839T550 856Q574 856 590 839T607 798Q607 776 591 759T550 742ZM749 742Q727 742 710 759T693 798Q693 822 710 839T749 856Q773 856 789 839T806
798Q806 776 790 759T749 742Z" />
<glyph unicode="&#xc5;" horiz-adv-x="759" d="M-82 0L-73 19L-18 29Q16 34 38 46T80 81L534 584L537 635Q560 636 580 647T615 673T635 698H645L592 94Q589 59 599 47T636 28L674 19L665 0H353L362 19L419 29Q462 36 477 49T495 98L534 555H547L115 80Q97 59
97 48T121 32L185 19L176 0H-82ZM239 228L260 260H550L534 228H239ZM728 779Q728 741 701 713T634 685Q596 685 568 713T540 779Q540 818 568 845T634 873Q673 873 700 846T728 779ZM691 779Q691 803 675 819T635 836Q612 836 595 820T577 779Q577 756 594 740T635
723Q659 723 675 739T691 779Z" />
<glyph unicode="&#xc6;" horiz-adv-x="1035" d="M-72 0L-63 19L-9 29Q24 34 45 47T88 81L667 596L678 565L127 80Q107 62 107 50T133 32L195 19L186 0H-72ZM277 228L299 260H564L549 228H277ZM305 0L312 19L375 30Q404 35 419 40T443 57T460 89L660 584Q673 616
666 626T623 643L569 654L577 673H1147Q1138 659 1131 645T1118 617Q1105 582 1098 551T1085 496H1064Q1066 539 1059 573T1027 626T952 646H790L678 370H828Q863 370 885 378T924 403T956 447L984 494H1003L890 216H871L881 264Q890 304 879 322T817 340H667L568
98Q559 73 558 57T569 34T615 27H702Q742 27 781 41T854 79T912 126L964 180H984Q954 135 929 88T885 0H305Z" />
<glyph unicode="&#xc7;" horiz-adv-x="770" d="M395 -8Q303 -8 237 28T134 124T97 257Q97 342 134 419T236 555T385 648T566 682Q620 682 662 674T729 656Q749 649 766 644T804 638Q815 638 823 640T842 643L844 641Q827 601 822 557T819 464H798Q783 519 755
562T677 629T554 654Q491 654 438 630T342 562T269 466T223 356T206 244Q206 136 261 78T407 20Q435 20 472 28T550 58T629 117T702 212H725Q703 164 686 117T659 28Q658 28 655 28T644 28Q627 28 604 24T552 13Q515 6 474 -1T395 -8ZM205 -247L217 -220Q243 -217
271 -212T323 -196T362 -172T377 -136Q377 -117 357 -107T295 -95L360 0H395L368 -40Q413 -46 437 -61T462 -110Q462 -142 439 -166T377 -208T293 -235T205 -247Z" />
<glyph unicode="&#xc8;" horiz-adv-x="681" d="M-50 0L-42 19L21 30Q49 35 64 40T89 57T106 89L305 584Q318 616 311 626T268 643L215 654L222 673H792Q783 659 777 645T764 617Q750 582 744 551T730 496H710Q712 539 705 573T672 626T598 646H436L324 370H474Q509
370 531 378T569 403T602 447L630 494H649L536 216H517L527 264Q536 304 525 322T463 340H312L214 98Q204 73 203 57T214 34T261 27H348Q387 27 426 41T499 79T557 126L610 180H630Q600 135 575 88T531 0H-50ZM641 734L496 793Q477 800 470 814Q463 829 468 842T487
863Q496 868 507 867T529 857L654 753L641 734Z" />
<glyph unicode="&#xc9;" horiz-adv-x="681" d="M-50 0L-42 19L21 30Q49 35 64 40T89 57T106 89L305 584Q318 616 311 626T268 643L215 654L222 673H792Q783 659 777 645T764 617Q750 582 744 551T730 496H710Q712 539 705 573T672 626T598 646H436L324 370H474Q509
370 531 378T569 403T602 447L630 494H649L536 216H517L527 264Q536 304 525 322T463 340H312L214 98Q204 73 203 57T214 34T261 27H348Q387 27 426 41T499 79T557 126L610 180H630Q600 135 575 88T531 0H-50ZM484 736L476 756L677 852Q688 857 696 858T714 857Q728
854 735 842T738 817Q736 808 726 800T698 787L484 736Z" />
<glyph unicode="&#xca;" horiz-adv-x="681" d="M-50 0L-42 19L21 30Q49 35 64 40T89 57T106 89L305 584Q318 616 311 626T268 643L215 654L222 673H792Q783 659 777 645T764 617Q750 582 744 551T730 496H710Q712 539 705 573T672 626T598 646H436L324 370H474Q509
370 531 378T569 403T602 447L630 494H649L536 216H517L527 264Q536 304 525 322T463 340H312L214 98Q204 73 203 57T214 34T261 27H348Q387 27 426 41T499 79T557 126L610 180H630Q600 135 575 88T531 0H-50ZM431 721L416 739L602 867H634L705 733L679 721L591
792L431 721Z" />
<glyph unicode="&#xcb;" horiz-adv-x="681" d="M-50 0L-42 19L21 30Q49 35 64 40T89 57T106 89L305 584Q318 616 311 626T268 643L215 654L222 673H792Q783 659 777 645T764 617Q750 582 744 551T730 496H710Q712 539 705 573T672 626T598 646H436L324 370H474Q509
370 531 378T569 403T602 447L630 494H649L536 216H517L527 264Q536 304 525 322T463 340H312L214 98Q204 73 203 57T214 34T261 27H348Q387 27 426 41T499 79T557 126L610 180H630Q600 135 575 88T531 0H-50ZM476 742Q454 742 437 759T420 798Q420 822 437 839T476
856Q500 856 516 839T533 798Q533 776 517 759T476 742ZM675 742Q653 742 636 759T619 798Q619 822 636 839T675 856Q699 856 715 839T732 798Q732 776 716 759T675 742Z" />
<glyph unicode="&#xcc;" horiz-adv-x="417" d="M-50 0L-42 19L21 30Q49 35 64 40T89 57T106 89L305 584Q318 616 311 626T268 643L215 654L222 673H565L558 654L495 643Q467 638 451 633T427 616T410 584L210 89Q197 58 204 48T247 30L301 19L293 0H-50ZM745 734L600
793Q581 800 574 814Q567 829 572 842T591 863Q600 868 611 867T633 857L758 753L745 734Z" />
<glyph unicode="&#xcd;" horiz-adv-x="417" d="M-50 0L-42 19L21 30Q49 35 64 40T89 57T106 89L305 584Q318 616 311 626T268 643L215 654L222 673H565L558 654L495 643Q467 638 451 633T427 616T410 584L210 89Q197 58 204 48T247 30L301 19L293 0H-50ZM588 736L580
756L781 852Q792 857 800 858T818 857Q832 854 839 842T842 817Q840 808 830 800T802 787L588 736Z" />
<glyph unicode="&#xce;" horiz-adv-x="417" d="M-50 0L-42 19L21 30Q49 35 64 40T89 57T106 89L305 584Q318 616 311 626T268 643L215 654L222 673H565L558 654L495 643Q467 638 451 633T427 616T410 584L210 89Q197 58 204 48T247 30L301 19L293 0H-50ZM535 721L520
739L706 867H738L809 733L783 721L695 792L535 721Z" />
<glyph unicode="&#xcf;" horiz-adv-x="417" d="M-50 0L-42 19L21 30Q49 35 64 40T89 57T106 89L305 584Q318 616 311 626T268 643L215 654L222 673H565L558 654L495 643Q467 638 451 633T427 616T410 584L210 89Q197 58 204 48T247 30L301 19L293 0H-50ZM325 742Q303
742 286 759T269 798Q269 822 286 839T325 856Q349 856 365 839T382 798Q382 776 366 759T325 742ZM524 742Q502 742 485 759T468 798Q468 822 485 839T524 856Q548 856 564 839T581 798Q581 776 565 759T524 742Z" />
<glyph unicode="&#xd0;" horiz-adv-x="801" d="M81 322L98 362H445L428 322H81ZM-50 0L-42 19L21 30Q49 35 64 40T89 57T106 89L305 584Q318 616 311 626T268 643L215 654L222 673H519Q609 673 675 642T777 553T814 414Q814 331 778 257T676 124T522 33T331 0H-50ZM300
27Q394 27 469 56T598 141T679 274T708 447Q708 513 685 557T619 624T517 647H435L209 86Q196 53 217 40T300 27Z" />
<glyph unicode="&#xd1;" horiz-adv-x="849" d="M604 -16L334 567L142 94Q130 65 136 52T177 31L237 19L229 0H-49L-41 19L24 31Q51 35 66 41T92 60T110 92L307 579Q316 601 316 613T305 632T262 645L217 655L224 673H396L645 138L822 579Q834 609 827 622T786
642L727 654L734 673H1012L1005 654L939 642Q913 638 897 632T872 613T854 581L613 -16H604ZM322 718L328 732H339Q374 732 392 736T423 750T447 774Q476 805 511 830T591 870T689 885Q741 885 773 869T821 828T841 772Q843 757 847 748T868 736T919 732H930L924
718H801Q812 747 801 773T757 815T669 831Q615 831 570 816T492 774T445 718H322Z" />
<glyph unicode="&#xd2;" horiz-adv-x="823" d="M397 -8Q312 -8 245 25T139 120T100 265Q100 352 137 427T237 560T378 650T537 682Q623 682 689 649T795 554T834 409Q834 322 797 247T696 114T556 25T397 -8ZM398 20Q448 20 496 40T586 99T659 191T708 308T726
445Q726 510 702 557T636 629T538 655Q488 655 440 634T350 575T277 483T227 366T209 228Q209 164 233 117T300 45T398 20ZM646 734L501 793Q482 800 475 814Q468 829 473 842T492 863Q501 868 512 867T534 857L659 753L646 734Z" />
<glyph unicode="&#xd3;" horiz-adv-x="823" d="M397 -8Q312 -8 245 25T139 120T100 265Q100 352 137 427T237 560T378 650T537 682Q623 682 689 649T795 554T834 409Q834 322 797 247T696 114T556 25T397 -8ZM398 20Q448 20 496 40T586 99T659 191T708 308T726
445Q726 510 702 557T636 629T538 655Q488 655 440 634T350 575T277 483T227 366T209 228Q209 164 233 117T300 45T398 20ZM489 736L481 756L682 852Q693 857 701 858T719 857Q733 854 740 842T743 817Q741 808 731 800T703 787L489 736Z" />
<glyph unicode="&#xd4;" horiz-adv-x="823" d="M397 -8Q312 -8 245 25T139 120T100 265Q100 352 137 427T237 560T378 650T537 682Q623 682 689 649T795 554T834 409Q834 322 797 247T696 114T556 25T397 -8ZM398 20Q448 20 496 40T586 99T659 191T708 308T726
445Q726 510 702 557T636 629T538 655Q488 655 440 634T350 575T277 483T227 366T209 228Q209 164 233 117T300 45T398 20ZM436 721L421 739L607 867H639L710 733L684 721L596 792L436 721Z" />
<glyph unicode="&#xd5;" horiz-adv-x="823" d="M397 -8Q312 -8 245 25T139 120T100 265Q100 352 137 427T237 560T378 650T537 682Q623 682 689 649T795 554T834 409Q834 322 797 247T696 114T556 25T397 -8ZM398 20Q448 20 496 40T586 99T659 191T708 308T726
445Q726 510 702 557T636 629T538 655Q488 655 440 634T350 575T277 483T227 366T209 228Q209 164 233 117T300 45T398 20ZM268 718L274 732H285Q320 732 338 736T369 750T393 774Q422 805 457 830T537 870T635 885Q687 885 719 869T767 828T787 772Q789 757 793
748T814 736T865 732H876L870 718H747Q758 747 747 773T703 815T615 831Q561 831 516 816T438 774T391 718H268Z" />
<glyph unicode="&#xd6;" horiz-adv-x="823" d="M397 -8Q312 -8 245 25T139 120T100 265Q100 352 137 427T237 560T378 650T537 682Q623 682 689 649T795 554T834 409Q834 322 797 247T696 114T556 25T397 -8ZM398 20Q448 20 496 40T586 99T659 191T708 308T726
445Q726 510 702 557T636 629T538 655Q488 655 440 634T350 575T277 483T227 366T209 228Q209 164 233 117T300 45T398 20ZM482 742Q460 742 443 759T426 798Q426 822 443 839T482 856Q506 856 522 839T539 798Q539 776 523 759T482 742ZM681 742Q659 742 642 759T625
798Q625 822 642 839T681 856Q705 856 721 839T738 798Q738 776 722 759T681 742Z" />
<glyph unicode="&#xd7;" horiz-adv-x="541" d="M188 171L157 202L289 334L158 465L189 495L319 365L451 496L482 465L350 334L481 202L450 171L319 303L188 171Z" />
<glyph unicode="&#xd8;" horiz-adv-x="828" d="M-4 -9L-25 24L934 682L957 650L-4 -9ZM402 -8Q317 -8 250 25T144 120T105 265Q105 352 142 427T242 560T383 650T542 682Q628 682 694 649T800 554T839 409Q839 322 802 247T701 114T561 25T402 -8ZM403 20Q453
20 501 40T591 99T664 191T713 308T731 445Q731 510 707 557T641 629T543 655Q493 655 445 634T355 575T282 483T232 366T214 228Q214 164 238 117T305 45T403 20Z" />
<glyph unicode="&#xd9;" horiz-adv-x="784" d="M306 -12Q230 -12 185 21T131 110T151 237L291 584Q304 616 297 626T253 643L200 654L207 673H550L543 654L479 643Q452 638 437 633T413 616T395 584L251 229Q217 144 241 94T356 43Q414 43 464 66T553 131T615
230L756 579Q768 609 761 622T720 642L660 654L668 673H946L938 654L873 642Q847 638 831 632T806 613T788 581L598 110Q580 110 561 96T515 64Q481 38 431 13T306 -12ZM701 734L556 793Q537 800 530 814Q523 829 528 842T547 863Q556 868 567 867T589 857L714
753L701 734Z" />
<glyph unicode="&#xda;" horiz-adv-x="784" d="M306 -12Q230 -12 185 21T131 110T151 237L291 584Q304 616 297 626T253 643L200 654L207 673H550L543 654L479 643Q452 638 437 633T413 616T395 584L251 229Q217 144 241 94T356 43Q414 43 464 66T553 131T615
230L756 579Q768 609 761 622T720 642L660 654L668 673H946L938 654L873 642Q847 638 831 632T806 613T788 581L598 110Q580 110 561 96T515 64Q481 38 431 13T306 -12ZM543 736L535 756L736 852Q747 857 755 858T773 857Q787 854 794 842T797 817Q795 808 785
800T757 787L543 736Z" />
<glyph unicode="&#xdb;" horiz-adv-x="784" d="M306 -12Q230 -12 185 21T131 110T151 237L291 584Q304 616 297 626T253 643L200 654L207 673H550L543 654L479 643Q452 638 437 633T413 616T395 584L251 229Q217 144 241 94T356 43Q414 43 464 66T553 131T615
230L756 579Q768 609 761 622T720 642L660 654L668 673H946L938 654L873 642Q847 638 831 632T806 613T788 581L598 110Q580 110 561 96T515 64Q481 38 431 13T306 -12ZM491 721L476 739L662 867H694L765 733L739 721L651 792L491 721Z" />
<glyph unicode="&#xdc;" horiz-adv-x="784" d="M306 -12Q230 -12 185 21T131 110T151 237L291 584Q304 616 297 626T253 643L200 654L207 673H550L543 654L479 643Q452 638 437 633T413 616T395 584L251 229Q217 144 241 94T356 43Q414 43 464 66T553 131T615
230L756 579Q768 609 761 622T720 642L660 654L668 673H946L938 654L873 642Q847 638 831 632T806 613T788 581L598 110Q580 110 561 96T515 64Q481 38 431 13T306 -12ZM536 742Q514 742 497 759T480 798Q480 822 497 839T536 856Q560 856 576 839T593 798Q593
776 577 759T536 742ZM735 742Q713 742 696 759T679 798Q679 822 696 839T735 856Q759 856 775 839T792 798Q792 776 776 759T735 742Z" />
<glyph unicode="&#xdd;" horiz-adv-x="713" d="M362 289L265 607Q259 624 249 633T218 646L185 653L193 673H501L493 655L438 646Q397 639 383 625T377 581L445 358H438L684 590Q704 608 705 620T685 638L622 654L630 673H891L883 654L837 646Q809 642 784 631T730
592L422 303L362 289ZM97 0L104 19L167 30Q196 35 211 40T235 57T252 89L352 337L460 346L357 89Q344 58 351 48T394 30L447 19L440 0H97ZM501 736L493 756L694 852Q705 857 713 858T731 857Q745 854 752 842T755 817Q753 808 743 800T715 787L501 736Z" />
<glyph unicode="&#xde;" horiz-adv-x="624" d="M-50 0L-42 19L21 30Q49 35 64 40T89 57T106 89L305 584Q318 616 311 626T268 643L215 654L222 673H565L558 654L495 643Q467 638 451 633T427 616T410 584L394 545H444Q547 545 605 508T663 407Q663 358 635 314T561
236T459 183T347 163Q317 163 290 171L293 178Q337 181 382 198T466 247T528 322T552 420Q552 471 517 494T419 518H383L210 89Q197 58 204 48T247 30L301 19L293 0H-50Z" />
<glyph unicode="&#xdf;" horiz-adv-x="562" d="M-87 -247Q-115 -247 -140 -237T-182 -210T-199 -173Q-199 -148 -185 -136T-152 -124Q-134 -124 -120 -136T-105 -187Q-105 -205 -97 -212T-77 -220Q-34 -220 -9 -137L185 501Q220 616 270 663T394 711Q462 711 494
683T526 613Q526 574 512 549T478 504T436 465T401 419T387 351Q387 323 403 297T438 246Q460 219 477 190T495 119Q495 77 474 49T419 6T349 -9Q314 -9 284 3T235 41T216 108Q216 139 231 153T265 167Q282 167 295 156T308 126Q308 115 304 108T294 93Q288 86
283 79T277 62Q277 40 297 28T347 16Q380 16 403 35T427 97Q427 127 413 152T379 202Q358 231 340 261T322 329Q322 370 335 397T368 445T406 488T439 541T453 619Q453 647 440 665T394 684Q362 684 339 668T299 617T264 524L64 -138Q52 -138 45 -149T26 -178Q10
-202 -18 -224T-87 -247ZM84 401L96 431H219L206 401H84Z" />
<glyph unicode="&#xe0;" horiz-adv-x="495" d="M63 -8Q35 -8 16 9T-3 68Q-3 107 16 151T68 241T141 328Q188 377 239 408T334 439Q356 439 369 431T391 411H394L452 451H463L318 91Q310 70 313 60T325 49Q336 49 356 65T400 111T450 179L467 168Q405 73 361 33T284
-7Q259 -7 247 12T248 68L269 124H263Q240 90 207 60T136 11T63 -8ZM124 55Q150 55 179 75T236 128T288 200T324 276T338 341Q338 365 327 377T293 389Q268 389 235 371T170 319Q130 277 105 223T79 114Q79 82 91 69T124 55ZM626 545L525 664Q511 681 512 696Q512
712 523 721T549 731Q560 731 569 725T584 707L647 556L626 545Z" />
<glyph unicode="&#xe1;" horiz-adv-x="495" d="M63 -8Q35 -8 16 9T-3 68Q-3 107 16 151T68 241T141 328Q188 377 239 408T334 439Q356 439 369 431T391 411H394L452 451H463L318 91Q310 70 313 60T325 49Q336 49 356 65T400 111T450 179L467 168Q405 73 361 33T284
-7Q259 -7 247 12T248 68L269 124H263Q240 90 207 60T136 11T63 -8ZM124 55Q150 55 179 75T236 128T288 200T324 276T338 341Q338 365 327 377T293 389Q268 389 235 371T170 319Q130 277 105 223T79 114Q79 82 91 69T124 55ZM590 541L577 558L746 703Q756 711 764
714T780 718Q795 718 804 708T814 685Q814 675 807 665T784 646L590 541Z" />
<glyph unicode="&#xe2;" horiz-adv-x="495" d="M63 -8Q35 -8 16 9T-3 68Q-3 107 16 151T68 241T141 328Q188 377 239 408T334 439Q356 439 369 431T391 411H394L452 451H463L318 91Q310 70 313 60T325 49Q336 49 356 65T400 111T450 179L467 168Q405 73 361 33T284
-7Q259 -7 247 12T248 68L269 124H263Q240 90 207 60T136 11T63 -8ZM124 55Q150 55 179 75T236 128T288 200T324 276T338 341Q338 365 327 377T293 389Q268 389 235 371T170 319Q130 277 105 223T79 114Q79 82 91 69T124 55ZM694 701L765 547L748 536L658 618L495
536L482 551L671 701H694Z" />
<glyph unicode="&#xe3;" horiz-adv-x="495" d="M63 -8Q35 -8 16 9T-3 68Q-3 107 16 151T68 241T141 328Q188 377 239 408T334 439Q356 439 369 431T391 411H394L452 451H463L318 91Q310 70 313 60T325 49Q336 49 356 65T400 111T450 179L467 168Q405 73 361 33T284
-7Q259 -7 247 12T248 68L269 124H263Q240 90 207 60T136 11T63 -8ZM124 55Q150 55 179 75T236 128T288 200T324 276T338 341Q338 365 327 377T293 389Q268 389 235 371T170 319Q130 277 105 223T79 114Q79 82 91 69T124 55ZM502 521L482 526Q492 573 509 599T548
634T595 644Q612 644 628 640T660 633Q674 630 690 627T720 624Q735 624 746 630T757 651Q757 659 750 661T732 664Q711 667 702 676T693 703Q693 718 704 728T733 738Q763 738 776 720T790 676Q790 631 766 601T688 570Q677 570 665 572T641 575Q624 578 609 580T579
583Q548 583 532 569T502 521Z" />
<glyph unicode="&#xe4;" horiz-adv-x="495" d="M63 -8Q35 -8 16 9T-3 68Q-3 107 16 151T68 241T141 328Q188 377 239 408T334 439Q356 439 369 431T391 411H394L452 451H463L318 91Q310 70 313 60T325 49Q336 49 356 65T400 111T450 179L467 168Q405 73 361 33T284
-7Q259 -7 247 12T248 68L269 124H263Q240 90 207 60T136 11T63 -8ZM124 55Q150 55 179 75T236 128T288 200T324 276T338 341Q338 365 327 377T293 389Q268 389 235 371T170 319Q130 277 105 223T79 114Q79 82 91 69T124 55ZM553 566Q531 566 514 583T497 622Q497
646 514 663T553 680Q577 680 593 663T610 622Q610 600 594 583T553 566ZM752 566Q730 566 713 583T696 622Q696 646 713 663T752 680Q776 680 792 663T809 622Q809 600 793 583T752 566Z" />
<glyph unicode="&#xe5;" horiz-adv-x="495" d="M63 -8Q35 -8 16 9T-3 68Q-3 107 16 151T68 241T141 328Q188 377 239 408T334 439Q356 439 369 431T391 411H394L452 451H463L318 91Q310 70 313 60T325 49Q336 49 356 65T400 111T450 179L467 168Q405 73 361 33T284
-7Q259 -7 247 12T248 68L269 124H263Q240 90 207 60T136 11T63 -8ZM124 55Q150 55 179 75T236 128T288 200T324 276T338 341Q338 365 327 377T293 389Q268 389 235 371T170 319Q130 277 105 223T79 114Q79 82 91 69T124 55ZM730 620Q730 589 714 563T673 521T615
505Q583 505 557 520T516 562T500 620Q500 652 515 678T557 719T615 735Q647 735 672 720T714 678T730 620ZM686 620Q686 649 666 670T616 692Q586 692 565 671T543 620Q543 591 564 570T616 548Q645 548 665 569T686 620Z" />
<glyph unicode="&#xe6;" horiz-adv-x="634" d="M63 -8Q34 -8 16 9T-3 68Q-3 107 16 151T68 241T141 328Q188 377 239 408T334 439Q356 439 369 431T391 411H394L451 451H462L353 179L306 184Q277 135 237 91T152 20T63 -8ZM124 55Q150 55 179 75T236 128T288 200T324
276T338 341Q338 365 327 377T293 389Q268 389 235 371T170 319Q130 277 105 223T79 114Q79 82 91 69T124 55ZM370 -8Q327 -8 307 21T287 93Q287 146 307 199T361 299T436 381Q468 407 504 423T575 439Q609 439 625 423T642 381Q642 348 613 312T521 247T353 206L357
231Q429 237 475 260T544 311T567 361Q567 392 534 392Q511 392 482 375T427 326T383 248T365 143Q365 103 376 80T422 56Q443 56 469 71T521 113T569 179L588 168Q561 120 524 81T445 17T370 -8Z" />
<glyph unicode="&#xe7;" horiz-adv-x="367" d="M103 -8Q68 -8 44 16T19 88Q19 146 40 197T94 293T163 370Q199 402 236 420T303 439Q341 439 360 419T380 372Q380 351 371 339T343 327Q321 327 315 337T307 362Q306 375 301 384T278 394Q253 394 222 376T162 324T115
246T96 148Q96 94 111 75T152 56Q186 56 226 88T302 179L321 167Q296 124 261 84T184 18T103 -8ZM182 -247L194 -220Q220 -217 248 -212T300 -196T339 -172T354 -136Q354 -117 334 -107T272 -95L337 0H372L345 -40Q390 -46 414 -61T439 -110Q439 -142 416 -166T354
-208T270 -235T182 -247Z" />
<glyph unicode="&#xe8;" horiz-adv-x="369" d="M105 -8Q62 -8 42 21T22 93Q22 146 42 199T96 299T171 381Q203 407 239 423T310 439Q344 439 361 423T378 381Q378 348 349 312T256 247T89 206L92 231Q164 237 210 260T279 311T302 361Q302 392 269 392Q246 392
218 375T162 326T118 248T100 143Q100 103 111 80T157 56Q178 56 204 71T256 113T304 179L323 168Q297 120 259 81T181 17T105 -8ZM341 545L240 664Q226 681 227 696Q227 712 238 721T264 731Q275 731 284 725T299 707L362 556L341 545Z" />
<glyph unicode="&#xe9;" horiz-adv-x="369" d="M105 -8Q62 -8 42 21T22 93Q22 146 42 199T96 299T171 381Q203 407 239 423T310 439Q344 439 361 423T378 381Q378 348 349 312T256 247T89 206L92 231Q164 237 210 260T279 311T302 361Q302 392 269 392Q246 392
218 375T162 326T118 248T100 143Q100 103 111 80T157 56Q178 56 204 71T256 113T304 179L323 168Q297 120 259 81T181 17T105 -8ZM561 541L548 558L717 703Q727 711 735 714T751 718Q766 718 775 708T785 685Q785 675 778 665T755 646L561 541Z" />
<glyph unicode="&#xea;" horiz-adv-x="369" d="M105 -8Q62 -8 42 21T22 93Q22 146 42 199T96 299T171 381Q203 407 239 423T310 439Q344 439 361 423T378 381Q378 348 349 312T256 247T89 206L92 231Q164 237 210 260T279 311T302 361Q302 392 269 392Q246 392
218 375T162 326T118 248T100 143Q100 103 111 80T157 56Q178 56 204 71T256 113T304 179L323 168Q297 120 259 81T181 17T105 -8ZM665 701L736 547L719 536L629 618L466 536L453 551L642 701H665Z" />
<glyph unicode="&#xeb;" horiz-adv-x="369" d="M105 -8Q62 -8 42 21T22 93Q22 146 42 199T96 299T171 381Q203 407 239 423T310 439Q344 439 361 423T378 381Q378 348 349 312T256 247T89 206L92 231Q164 237 210 260T279 311T302 361Q302 392 269 392Q246 392
218 375T162 326T118 248T100 143Q100 103 111 80T157 56Q178 56 204 71T256 113T304 179L323 168Q297 120 259 81T181 17T105 -8ZM524 566Q502 566 485 583T468 622Q468 646 485 663T524 680Q548 680 564 663T581 622Q581 600 565 583T524 566ZM723 566Q701 566
684 583T667 622Q667 646 684 663T723 680Q747 680 763 663T780 622Q780 600 764 583T723 566Z" />
<glyph unicode="&#xec;" horiz-adv-x="321" d="M106 -7Q78 -7 65 13T62 64L172 341Q181 365 178 374T167 383Q156 383 136 363T91 314T46 254L29 265Q91 353 133 396T214 439Q242 439 255 417T254 356L148 91Q139 69 143 59T155 49Q166 49 186 65T230 111T280
179L297 168Q233 73 186 33T106 -7ZM274 545L173 664Q159 681 160 696Q160 712 171 721T197 731Q208 731 217 725T232 707L295 556L274 545Z" />
<glyph unicode="&#xed;" horiz-adv-x="321" d="M106 -7Q78 -7 65 13T62 64L172 341Q181 365 178 374T167 383Q156 383 136 363T91 314T46 254L29 265Q91 353 133 396T214 439Q242 439 255 417T254 356L148 91Q139 69 143 59T155 49Q166 49 186 65T230 111T280
179L297 168Q233 73 186 33T106 -7ZM494 541L481 558L650 703Q660 711 668 714T684 718Q699 718 708 708T718 685Q718 675 711 665T688 646L494 541Z" />
<glyph unicode="&#xee;" horiz-adv-x="321" d="M106 -7Q78 -7 65 13T62 64L172 341Q181 365 178 374T167 383Q156 383 136 363T91 314T46 254L29 265Q91 353 133 396T214 439Q242 439 255 417T254 356L148 91Q139 69 143 59T155 49Q166 49 186 65T230 111T280
179L297 168Q233 73 186 33T106 -7ZM342 701L413 547L396 536L306 618L143 536L130 551L319 701H342Z" />
<glyph unicode="&#xef;" horiz-adv-x="321" d="M106 -7Q78 -7 65 13T62 64L172 341Q181 365 178 374T167 383Q156 383 136 363T91 314T46 254L29 265Q91 353 133 396T214 439Q242 439 255 417T254 356L148 91Q139 69 143 59T155 49Q166 49 186 65T230 111T280
179L297 168Q233 73 186 33T106 -7ZM201 566Q179 566 162 583T145 622Q145 646 162 663T201 680Q225 680 241 663T258 622Q258 600 242 583T201 566ZM400 566Q378 566 361 583T344 622Q344 646 361 663T400 680Q424 680 440 663T457 622Q457 600 441 583T400 566Z"
/>
<glyph unicode="&#xf0;" horiz-adv-x="518" d="M340 470L331 498L655 619L665 592L340 470ZM164 -14Q114 -14 82 4T35 52T20 119Q20 183 41 238T100 334T184 397T282 420Q317 420 344 405T384 362T392 295H398Q422 341 440 391T469 492T480 586Q480 618 470 635T434
652Q418 652 402 637T371 604Q358 587 342 570T309 553Q295 553 286 562T277 582Q277 607 293 625T335 656T389 675T439 682Q494 682 525 649T556 553Q556 481 538 403T485 250T402 117T293 22T164 -14ZM187 22Q228 22 262 49T320 119T357 209T370 297Q370 338
351 360T287 382Q249 382 217 361T161 303T124 217T111 113Q111 90 119 70T144 36T187 22Z" />
<glyph unicode="&#xf1;" horiz-adv-x="562" d="M32 -10L172 342Q181 364 178 373T167 383Q156 383 136 363T91 314T46 254L29 264Q90 353 132 396T212 439Q243 439 255 416T252 356L180 184H184Q200 210 222 243T273 311T333 374T396 421T461 439Q494 439 505
415T501 355L388 87Q381 68 384 59T397 49Q408 49 428 65T472 111T521 179L538 168Q474 73 427 33T347 -7Q317 -7 305 15T309 77L418 333Q427 354 424 366T404 378Q385 378 348 349T268 267T183 147T112 0L32 -10ZM533 521L513 526Q523 573 540 599T579 634T626
644Q643 644 659 640T691 633Q705 630 721 627T751 624Q766 624 777 630T788 651Q788 659 781 661T763 664Q742 667 733 676T724 703Q724 718 735 728T764 738Q794 738 807 720T821 676Q821 631 797 601T719 570Q708 570 696 572T672 575Q655 578 640 580T610 583Q579
583 563 569T533 521Z" />
<glyph unicode="&#xf2;" horiz-adv-x="447" d="M167 -8Q107 -8 73 31T39 134Q39 184 57 237T109 336T186 410T282 439Q343 439 376 399T409 297Q409 247 391 194T340 95T264 21T167 -8ZM157 16Q183 16 209 39T259 99T301 180T330 266T341 341Q341 413 291 413Q264
413 238 390T188 331T146 251T118 165T107 90Q107 56 120 36T157 16ZM348 545L247 664Q233 681 234 696Q234 712 245 721T271 731Q282 731 291 725T306 707L369 556L348 545Z" />
<glyph unicode="&#xf3;" horiz-adv-x="447" d="M167 -8Q107 -8 73 31T39 134Q39 184 57 237T109 336T186 410T282 439Q343 439 376 399T409 297Q409 247 391 194T340 95T264 21T167 -8ZM157 16Q183 16 209 39T259 99T301 180T330 266T341 341Q341 413 291 413Q264
413 238 390T188 331T146 251T118 165T107 90Q107 56 120 36T157 16ZM567 541L554 558L723 703Q733 711 741 714T757 718Q772 718 781 708T791 685Q791 675 784 665T761 646L567 541Z" />
<glyph unicode="&#xf4;" horiz-adv-x="447" d="M167 -8Q107 -8 73 31T39 134Q39 184 57 237T109 336T186 410T282 439Q343 439 376 399T409 297Q409 247 391 194T340 95T264 21T167 -8ZM157 16Q183 16 209 39T259 99T301 180T330 266T341 341Q341 413 291 413Q264
413 238 390T188 331T146 251T118 165T107 90Q107 56 120 36T157 16ZM671 701L742 547L725 536L635 618L472 536L459 551L648 701H671Z" />
<glyph unicode="&#xf5;" horiz-adv-x="447" d="M167 -8Q107 -8 73 31T39 134Q39 184 57 237T109 336T186 410T282 439Q343 439 376 399T409 297Q409 247 391 194T340 95T264 21T167 -8ZM157 16Q183 16 209 39T259 99T301 180T330 266T341 341Q341 413 291 413Q264
413 238 390T188 331T146 251T118 165T107 90Q107 56 120 36T157 16ZM480 521L460 526Q470 573 487 599T526 634T573 644Q590 644 606 640T638 633Q652 630 668 627T698 624Q713 624 724 630T735 651Q735 659 728 661T710 664Q689 667 680 676T671 703Q671 718
682 728T711 738Q741 738 754 720T768 676Q768 631 744 601T666 570Q655 570 643 572T619 575Q602 578 587 580T557 583Q526 583 510 569T480 521Z" />
<glyph unicode="&#xf6;" horiz-adv-x="447" d="M167 -8Q107 -8 73 31T39 134Q39 184 57 237T109 336T186 410T282 439Q343 439 376 399T409 297Q409 247 391 194T340 95T264 21T167 -8ZM157 16Q183 16 209 39T259 99T301 180T330 266T341 341Q341 413 291 413Q264
413 238 390T188 331T146 251T118 165T107 90Q107 56 120 36T157 16ZM530 566Q508 566 491 583T474 622Q474 646 491 663T530 680Q554 680 570 663T587 622Q587 600 571 583T530 566ZM729 566Q707 566 690 583T673 622Q673 646 690 663T729 680Q753 680 769 663T786
622Q786 600 770 583T729 566Z" />
<glyph unicode="&#xf7;" horiz-adv-x="541" d="M320 120Q296 120 279 137T261 179Q261 203 278 220T320 238Q344 238 361 221T378 179Q378 155 361 138T320 120ZM320 431Q296 431 279 448T261 490Q261 514 278 531T320 549Q344 549 361 532T378 490Q378 466 361
449T320 431ZM123 313V356H517V313H123Z" />
<glyph unicode="&#xf8;" horiz-adv-x="447" d="M-14 -9L-33 15L457 439L479 414L-14 -9ZM168 -8Q107 -8 73 31T39 134Q39 184 57 237T109 336T186 410T282 439Q343 439 376 399T409 297Q409 247 391 194T340 95T264 21T168 -8ZM157 16Q184 16 210 39T260 99T302
180T330 266T341 341Q341 413 291 413Q264 413 238 390T189 331T147 251T118 165T107 90Q107 56 120 36T157 16Z" />
<glyph unicode="&#xf9;" horiz-adv-x="556" d="M101 -8Q68 -8 57 16T60 76L174 344Q182 363 179 373T165 383Q155 383 135 366T91 320T41 252L24 263Q89 359 135 399T215 439Q245 439 257 416T253 354L144 98Q135 78 138 66T157 53Q177 53 212 82T290 164T374
285T444 431L524 440L383 88Q374 66 377 57T388 48Q399 48 420 67T465 117T509 176L526 166Q466 78 424 35T344 -8Q313 -8 301 14T304 75L376 247H372Q357 221 335 188T284 120T226 57T163 10T101 -8ZM650 545L549 664Q535 681 536 696Q536 712 547 721T573 731Q584
731 593 725T608 707L671 556L650 545Z" />
<glyph unicode="&#xfa;" horiz-adv-x="556" d="M101 -8Q68 -8 57 16T60 76L174 344Q182 363 179 373T165 383Q155 383 135 366T91 320T41 252L24 263Q89 359 135 399T215 439Q245 439 257 416T253 354L144 98Q135 78 138 66T157 53Q177 53 212 82T290 164T374
285T444 431L524 440L383 88Q374 66 377 57T388 48Q399 48 420 67T465 117T509 176L526 166Q466 78 424 35T344 -8Q313 -8 301 14T304 75L376 247H372Q357 221 335 188T284 120T226 57T163 10T101 -8ZM357 541L344 558L513 703Q523 711 531 714T547 718Q562 718
571 708T581 685Q581 675 574 665T551 646L357 541Z" />
<glyph unicode="&#xfb;" horiz-adv-x="556" d="M101 -8Q68 -8 57 16T60 76L174 344Q182 363 179 373T165 383Q155 383 135 366T91 320T41 252L24 263Q89 359 135 399T215 439Q245 439 257 416T253 354L144 98Q135 78 138 66T157 53Q177 53 212 82T290 164T374
285T444 431L524 440L383 88Q374 66 377 57T388 48Q399 48 420 67T465 117T509 176L526 166Q466 78 424 35T344 -8Q313 -8 301 14T304 75L376 247H372Q357 221 335 188T284 120T226 57T163 10T101 -8ZM717 701L788 547L771 536L681 618L518 536L505 551L694 701H717Z"
/>
<glyph unicode="&#xfc;" horiz-adv-x="556" d="M101 -8Q68 -8 57 16T60 76L174 344Q182 363 179 373T165 383Q155 383 135 366T91 320T41 252L24 263Q89 359 135 399T215 439Q245 439 257 416T253 354L144 98Q135 78 138 66T157 53Q177 53 212 82T290 164T374
285T444 431L524 440L383 88Q374 66 377 57T388 48Q399 48 420 67T465 117T509 176L526 166Q466 78 424 35T344 -8Q313 -8 301 14T304 75L376 247H372Q357 221 335 188T284 120T226 57T163 10T101 -8ZM572 566Q550 566 533 583T516 622Q516 646 533 663T572 680Q596
680 612 663T629 622Q629 600 613 583T572 566ZM771 566Q749 566 732 583T715 622Q715 646 732 663T771 680Q795 680 811 663T828 622Q828 600 812 583T771 566Z" />
<glyph unicode="&#xfd;" horiz-adv-x="470" d="M-73 -284Q-104 -284 -133 -274T-181 -245T-201 -201Q-201 -176 -187 -163T-153 -150Q-125 -150 -117 -168T-104 -207Q-100 -227 -95 -243T-68 -260Q-20 -260 24 -233T106 -158T171 -52T214 70T229 192Q229 295 202
348T128 402Q94 402 76 381T57 328Q57 310 64 292T87 259L79 247Q55 263 44 287T32 335Q32 375 59 407T140 439Q182 439 212 418T263 362T293 282T303 190Q303 145 295 102T273 24L277 22Q298 43 320 77T361 150T392 227T404 295Q404 324 393 337T367 359Q357 367
348 376T339 403Q339 430 358 442T395 455Q419 455 434 433T449 370Q449 323 432 262T381 133T301 -1Q268 -47 225 -96T133 -188T31 -257T-73 -284ZM498 541L485 558L654 703Q664 711 672 714T688 718Q703 718 712 708T722 685Q722 675 715 665T692 646L498 541Z"
/>
<glyph unicode="&#xfe;" horiz-adv-x="467" d="M-165 -250L-159 -234L-116 -223Q-99 -219 -90 -211T-75 -189L253 624Q259 640 253 646T227 655L191 660L195 673Q240 680 279 688T354 712L366 706Q355 686 345 664T326 620L268 475L188 306H192Q221 344 257 374T330
421T398 439Q425 439 444 422T464 361Q464 322 448 275T404 182T340 97T265 35T185 12Q140 12 110 29T79 83Q79 105 91 114T121 124Q139 124 152 112T165 65Q165 52 170 45T190 38Q219 38 247 57T299 107T343 176T372 254T383 328Q383 381 336 381Q314 381 287
363T234 314T184 246T146 173L0 -191Q-10 -217 15 -223L64 -234L57 -250H-165Z" />
<glyph unicode="&#xff;" horiz-adv-x="470" d="M-73 -284Q-104 -284 -133 -274T-181 -245T-201 -201Q-201 -176 -187 -163T-153 -150Q-125 -150 -117 -168T-104 -207Q-100 -227 -95 -243T-68 -260Q-20 -260 24 -233T106 -158T171 -52T214 70T229 192Q229 295 202
348T128 402Q94 402 76 381T57 328Q57 310 64 292T87 259L79 247Q55 263 44 287T32 335Q32 375 59 407T140 439Q182 439 212 418T263 362T293 282T303 190Q303 145 295 102T273 24L277 22Q298 43 320 77T361 150T392 227T404 295Q404 324 393 337T367 359Q357 367
348 376T339 403Q339 430 358 442T395 455Q419 455 434 433T449 370Q449 323 432 262T381 133T301 -1Q268 -47 225 -96T133 -188T31 -257T-73 -284ZM205 566Q183 566 166 583T149 622Q149 646 166 663T205 680Q229 680 245 663T262 622Q262 600 246 583T205 566ZM404
566Q382 566 365 583T348 622Q348 646 365 663T404 680Q428 680 444 663T461 622Q461 600 445 583T404 566Z" />
<glyph unicode="&#x2013;" horiz-adv-x="541" d="M13 228V269H555V228H13Z" />
<glyph unicode="&#x2014;" horiz-adv-x="1083" d="M1096 228H13V269H1096V228Z" />
<glyph unicode="&#x2018;" horiz-adv-x="271" d="M418 681L408 659Q376 653 340 635T279 588T254 524Q254 503 269 487T314 466L303 435Q284 427 271 420T247 402T222 375Q197 387 182 409T166 461Q166 503 187 540T244 608T325 657T418 681Z" />
<glyph unicode="&#x2019;" horiz-adv-x="271" d="M105 375L115 397Q148 403 184 421T244 469T269 532Q269 553 254 569T209 590L221 621Q240 628 252 636T276 655T301 680Q326 668 341 646T357 595Q357 553 336 516T279 448T198 398T105 375Z" />
<glyph unicode="&#x201a;" horiz-adv-x="271" d="M-108 -152L-98 -130Q-65 -124 -29 -106T31 -58T56 5Q56 26 41 42T-4 63L8 94Q27 101 39 109T63 128T88 153Q113 141 128 119T144 68Q144 26 123 -11T66 -79T-15 -129T-108 -152Z" />
<glyph unicode="&#x201c;" horiz-adv-x="470" d="M420 686L410 664Q378 658 342 640T281 593T256 529Q256 508 271 492T316 471L305 440Q286 432 273 425T249 407T224 380Q199 392 184 414T168 466Q168 508 189 545T246 613T327 662T420 686ZM619 686L609 664Q577
658 541 640T480 593T455 529Q455 508 470 492T515 471L504 440Q485 432 472 425T448 407T423 380Q398 392 383 414T367 466Q367 508 388 545T445 613T526 662T619 686Z" />
<glyph unicode="&#x201d;" horiz-adv-x="470" d="M306 379L316 401Q349 407 385 425T445 473T470 536Q470 557 455 573T410 594L422 625Q441 632 453 640T477 659T502 684Q527 672 542 650T558 599Q558 557 537 520T480 452T399 402T306 379ZM107 379L117 401Q150
407 186 425T246 473T271 536Q271 557 256 573T211 594L223 625Q242 632 254 640T278 659T303 684Q328 672 343 650T359 599Q359 557 338 520T281 452T200 402T107 379Z" />
<glyph unicode="&#x201e;" horiz-adv-x="468" d="M89 -152L99 -130Q132 -124 168 -106T228 -58T253 5Q253 26 238 42T193 63L205 94Q224 101 236 109T260 128T285 153Q310 141 325 119T341 68Q341 26 320 -11T263 -79T182 -129T89 -152ZM-108 -152L-98 -130Q-65
-124 -29 -106T31 -58T56 5Q56 26 41 42T-4 63L8 94Q27 101 39 109T63 128T88 153Q113 141 128 119T144 68Q144 26 123 -11T66 -79T-15 -129T-108 -152Z" />
<glyph unicode="&#x2022;" horiz-adv-x="366" d="M123 359Q123 392 139 419T181 462T241 478Q274 478 301 462T344 419T360 359Q360 326 344 300T301 257T241 241Q192 241 158 275T123 359Z" />
<glyph unicode="&#x2039;" horiz-adv-x="215" d="M104 61L16 199L21 211L215 342L231 333L91 202L125 73L104 61Z" />
<glyph unicode="&#x203a;" horiz-adv-x="215" d="M100 341L188 203L183 191L-11 60L-27 69L113 200L80 329L100 341Z" />
</font>
</defs>
</svg>
